<svg width="20" height="20" viewBox="0 0 20 20" fill="none" xmlns="http://www.w3.org/2000/svg">
<circle cx="10" cy="10" r="10" fill="#A2A29F"/>
<path d="M4.66675 10.0027C4.66675 10.2814 4.90005 10.5173 5.18132 10.5173H9.48837V14.8243C9.48837 15.0999 9.72427 15.3389 10.0029 15.3389C10.2816 15.3389 10.5118 15.0999 10.5118 14.8243V10.5173H14.8246C15.1001 10.5173 15.3334 10.2814 15.3334 10.0027C15.3334 9.72401 15.1001 9.48813 14.8246 9.48813H10.5118V5.18107C10.5118 4.90554 10.2816 4.6665 10.0029 4.6665C9.72427 4.6665 9.48837 4.90554 9.48837 5.18107V9.48813H5.18132C4.90005 9.48813 4.66675 9.72401 4.66675 10.0027Z" fill="#F7F8F6"/>
</svg>
