<svg width="200" height="252" viewBox="0 0 200 252" fill="none" xmlns="http://www.w3.org/2000/svg">
<path fill-rule="evenodd" clip-rule="evenodd" d="M119.041 4.13706C128.645 8.27701 136.707 15.3281 142.089 24.2955L156.664 48.58L184.559 95.539C195.513 111.679 201.363 131.101 199.729 151.726C195.442 205.848 156.771 255.676 100.993 251.431C45.2163 247.186 0 206.735 0 151.599C0 129.494 7.26763 109.068 19.5697 92.5265C34.3832 68.7532 45.5081 48.3521 52.9453 31.3224L53.4213 30.2253C64.3375 4.90092 93.7164 -6.77919 119.041 4.13706Z" fill="#68BA7E"/>
<path d="M131.09 127.604L117.371 137.45C125.009 141.826 130.468 144.014 133.748 144.014" stroke="black" stroke-width="3" stroke-linecap="round" stroke-linejoin="round"/>
<path fill-rule="evenodd" clip-rule="evenodd" d="M46.3998 191.258C58.3964 191.258 66.7364 180.896 68.1216 169.429C69.5068 157.963 58.3964 148.983 46.3998 147.6C34.4031 146.218 26.028 158.889 24.6779 169.429C23.3279 179.97 34.4031 191.258 46.3998 191.258Z" fill="#4B8D5C"/>
<path fill-rule="evenodd" clip-rule="evenodd" d="M158.311 191.258C170.308 191.258 178.648 180.896 180.033 169.429C181.419 157.963 170.308 148.983 158.311 147.6C146.315 146.218 137.94 158.889 136.59 169.429C135.24 179.97 146.315 191.258 158.311 191.258Z" fill="#4B8D5C"/>
<path fill-rule="evenodd" clip-rule="evenodd" d="M75.0609 152.967C83.3086 152.967 89.0423 145.843 89.9947 137.959C90.947 130.076 83.3086 123.902 75.0609 122.952C66.8132 122.001 61.0553 130.713 60.1271 137.959C59.199 145.205 66.8132 152.967 75.0609 152.967Z" fill="white"/>
<path fill-rule="evenodd" clip-rule="evenodd" d="M80.0657 146.281C85.5642 146.281 89.3866 141.531 90.0215 136.276C90.6564 131.02 85.5642 126.905 80.0657 126.271C74.5672 125.637 70.7286 131.445 70.1099 136.276C69.4911 141.107 74.5672 146.281 80.0657 146.281Z" fill="black"/>
<path fill-rule="evenodd" clip-rule="evenodd" d="M102.358 161.172C104.607 161.172 106.171 159.229 106.431 157.079C106.69 154.929 104.607 153.245 102.358 152.986C100.108 152.727 98.5381 155.103 98.2849 157.079C98.0318 159.055 100.108 161.172 102.358 161.172Z" fill="black"/>
<path d="M136.478 107.252L114.641 115.8" stroke="black" stroke-width="3" stroke-linecap="round"/>
<path d="M64.1426 109.474L90.0753 115.8" stroke="black" stroke-width="3" stroke-linecap="round"/>
<path d="M62.7797 163.16C84.3232 183.716 112.324 183.053 146.781 161.172" stroke="black" stroke-width="3" stroke-linecap="round"/>
</svg>
