<svg width="200" height="274" viewBox="0 0 200 274" fill="none" xmlns="http://www.w3.org/2000/svg">
<g clip-path="url(#clip0_668_147)">
<path fill-rule="evenodd" clip-rule="evenodd" d="M119.041 26.1373C128.645 30.2773 136.707 37.3284 142.089 46.2957L156.664 70.5802L184.559 117.539C195.513 133.68 201.363 153.101 199.729 173.726C195.442 227.848 156.771 277.677 100.993 273.431C45.2163 269.186 0 228.735 0 173.599C0 151.495 7.26763 131.068 19.5697 114.527C34.3832 90.7534 45.5081 70.3524 52.9453 53.3226L53.4213 52.2256C64.3375 26.9012 93.7164 15.2211 119.041 26.1373Z" fill="#68BA7E"/>
<path fill-rule="evenodd" clip-rule="evenodd" d="M40.941 205.053C51.4381 205.053 58.7355 195.987 59.9476 185.953C61.1597 175.92 51.4381 168.063 40.941 166.853C30.4439 165.643 23.1157 176.731 21.9344 185.953C20.7531 195.176 30.4439 205.053 40.941 205.053Z" fill="#4B8D5C"/>
<path fill-rule="evenodd" clip-rule="evenodd" d="M161.041 202.318C171.538 202.318 178.836 193.251 180.048 183.218C181.26 173.184 171.538 165.327 161.041 164.117C150.544 162.907 143.216 173.995 142.035 183.218C140.853 192.44 150.544 202.318 161.041 202.318Z" fill="#4B8D5C"/>
<path fill-rule="evenodd" clip-rule="evenodd" d="M99.6282 183.172C101.878 183.172 103.441 181.229 103.701 179.079C103.961 176.929 101.878 175.246 99.6282 174.986C97.3788 174.727 95.8085 177.103 95.5554 179.079C95.3022 181.056 97.3788 183.172 99.6282 183.172Z" fill="black"/>
<path d="M73.698 188.643C88.5697 203.23 107.677 203.23 131.019 188.643" stroke="black" stroke-width="3" stroke-linecap="round"/>
<path d="M64.9123 135.088C72.5893 125.731 79.6068 125.731 85.9649 135.088" stroke="black" stroke-width="3" stroke-linecap="round"/>
<path d="M114.035 135.088C121.712 125.731 128.73 125.731 135.088 135.088" stroke="black" stroke-width="3" stroke-linecap="round"/>
<path fill-rule="evenodd" clip-rule="evenodd" d="M74.6201 175.439C82.8459 175.439 88.5645 168.377 89.5143 160.562C90.4641 152.747 82.8459 146.628 74.6201 145.685C66.3942 144.743 60.6516 153.379 59.7259 160.562C58.8002 167.745 66.3942 175.439 74.6201 175.439Z" fill="white"/>
<path fill-rule="evenodd" clip-rule="evenodd" d="M123.622 175.439C131.848 175.439 137.566 168.377 138.516 160.562C139.466 152.747 131.848 146.628 123.622 145.685C115.396 144.743 109.653 153.379 108.728 160.562C107.802 167.745 115.396 175.439 123.622 175.439Z" fill="white"/>
<path fill-rule="evenodd" clip-rule="evenodd" d="M79.6116 171.523C85.0955 171.523 88.9079 166.815 89.5411 161.605C90.1743 156.395 85.0955 152.315 79.6116 151.687C74.1277 151.059 70.2993 156.816 69.6821 161.605C69.065 166.394 74.1277 171.523 79.6116 171.523Z" fill="black"/>
<path fill-rule="evenodd" clip-rule="evenodd" d="M128.613 171.523C134.097 171.523 137.91 166.815 138.543 161.605C139.176 156.395 134.097 152.315 128.613 151.687C123.13 151.059 119.301 156.816 118.684 161.605C118.067 166.394 123.13 171.523 128.613 171.523Z" fill="black"/>
</g>
<defs>
<clipPath id="clip0_668_147">
<rect width="200" height="273.684" fill="white"/>
</clipPath>
</defs>
</svg>
