<svg width="89" height="32" viewBox="0 0 89 32" fill="none" xmlns="http://www.w3.org/2000/svg">
<path d="M12.338 5.604C12.338 5.35067 12.3507 4.996 12.376 4.54C12.4013 4.084 12.49 3.628 12.642 3.172C12.794 2.716 13.022 2.32333 13.326 1.994C13.6553 1.66466 14.124 1.5 14.732 1.5C15.264 1.5 15.7327 1.63933 16.138 1.918C16.442 2.12067 16.67 2.488 16.822 3.02C16.9993 3.52666 17.1133 4.09666 17.164 4.73C17.24 5.36333 17.278 5.99667 17.278 6.63C17.278 7.26333 17.2653 7.78267 17.24 8.188V22.134C17.24 22.21 17.24 22.4887 17.24 22.97C17.24 23.426 17.2147 23.958 17.164 24.566C17.1133 25.1487 17.0247 25.7567 16.898 26.39C16.7967 26.998 16.6447 27.492 16.442 27.872C16.366 28.0493 16.2393 28.2393 16.062 28.442C15.91 28.6193 15.796 28.746 15.72 28.822C15.5173 29.0247 15.2893 29.1767 15.036 29.278C14.808 29.3793 14.5673 29.468 14.314 29.544C14.0607 29.5947 13.8327 29.6327 13.63 29.658C13.4273 29.6833 13.288 29.696 13.212 29.696H5.232C4.624 29.696 4.04133 29.6453 3.484 29.544C2.952 29.4427 2.458 29.2147 2.002 28.86C1.67267 28.6067 1.41933 28.29 1.242 27.91C1.09 27.5047 0.976 27.112 0.9 26.732C0.849333 26.352 0.824 26.01 0.824 25.706C0.824 25.3767 0.824 25.174 0.824 25.098V5.224C0.824 4.86933 0.862 4.47667 0.938 4.046C1.03933 3.61533 1.17867 3.22266 1.356 2.868C1.55867 2.488 1.812 2.184 2.116 1.956C2.42 1.70267 2.8 1.576 3.256 1.576C4.52267 1.576 5.346 2.12067 5.726 3.21C5.85267 3.56466 5.92867 3.91933 5.954 4.274C5.97933 4.62866 6.00467 4.98333 6.03 5.338V5.414C6.03 5.59133 6.03 6.03466 6.03 6.744C6.03 7.45333 6.03 8.226 6.03 9.062C6.03 9.898 6.03 10.696 6.03 11.456C6.05533 12.216 6.068 12.748 6.068 13.052C6.19467 13.052 6.524 13.052 7.056 13.052C7.588 13.052 8.18333 13.052 8.842 13.052C9.526 13.052 10.1847 13.0393 10.818 13.014C11.4513 12.9887 11.9327 12.938 12.262 12.862L12.338 10.658V5.604ZM27.044 27.91C26.9933 28.214 26.9553 28.518 26.93 28.822C26.9047 29.1007 26.8413 29.392 26.74 29.696C26.6893 29.7973 26.6513 29.886 26.626 29.962C26.6007 30.038 26.5627 30.1267 26.512 30.228C26.3347 30.5827 26.1067 30.8613 25.828 31.064C25.2453 31.4187 24.5993 31.5073 23.89 31.33C23.4847 31.254 23.1553 31.102 22.902 30.874C22.674 30.6713 22.4967 30.4053 22.37 30.076C22.2687 29.772 22.18 29.468 22.104 29.164C22.0533 28.86 22.028 28.594 22.028 28.366C22.028 28.138 22.028 28.0113 22.028 27.986V4.958C22.028 4.654 22.028 4.32467 22.028 3.97C22.028 3.61533 22.0533 3.26066 22.104 2.906C22.1547 2.55133 22.2307 2.222 22.332 1.918C22.4333 1.614 22.5727 1.37333 22.75 1.196C23.0287 0.917332 23.32 0.752665 23.624 0.701999C23.928 0.625998 24.2573 0.587998 24.612 0.587998C25.0427 0.587998 25.4353 0.714665 25.79 0.967998C26.17 1.196 26.436 1.52533 26.588 1.956C26.816 2.488 26.9427 3.04533 26.968 3.628C26.9933 4.21067 27.0187 4.79333 27.044 5.376V5.566C27.0947 7.51667 27.1073 9.518 27.082 11.57C27.0567 13.622 27.044 15.56 27.044 17.384V26.542C27.044 26.77 27.044 26.998 27.044 27.226C27.0693 27.454 27.0693 27.682 27.044 27.91ZM12.338 25.06L12.3 17.65L5.726 17.688C5.70067 18.22 5.688 18.8027 5.688 19.436C5.71333 20.0693 5.726 20.652 5.726 21.184C5.726 21.3867 5.726 21.6653 5.726 22.02C5.726 22.3747 5.726 22.7547 5.726 23.16C5.726 23.5653 5.726 23.9453 5.726 24.3C5.726 24.6547 5.726 24.9207 5.726 25.098L12.338 25.06ZM53.3379 17.536C53.2113 17.536 52.9326 17.5233 52.5019 17.498C52.0713 17.4727 51.7546 17.46 51.5519 17.46C51.2986 17.46 51.0579 17.46 50.8299 17.46C50.6273 17.4347 50.4246 17.3967 50.2219 17.346C50.0193 17.346 49.8166 17.3207 49.6139 17.27C49.4366 17.2193 49.2466 17.156 49.0439 17.08C48.7146 16.9027 48.4486 16.6873 48.2459 16.434C48.1193 16.2567 48.0053 16.092 47.9039 15.94C47.8279 15.788 47.7899 15.6107 47.7899 15.408C47.7393 15.104 47.7519 14.7493 47.8279 14.344C47.9293 13.9387 48.0686 13.6347 48.2459 13.432C48.3219 13.3053 48.3853 13.204 48.4359 13.128C48.5119 13.052 48.6006 12.9633 48.7019 12.862C48.8539 12.7353 49.0186 12.6467 49.1959 12.596C49.3733 12.52 49.5379 12.4567 49.6899 12.406C49.9686 12.3553 50.2219 12.33 50.4499 12.33C50.7033 12.33 50.9439 12.33 51.1719 12.33H53.4139V9.594C53.4139 9.29 53.4013 9.01133 53.3759 8.758C53.3506 8.50467 53.3379 8.23867 53.3379 7.96C53.3379 7.352 53.3379 6.75667 53.3379 6.174C53.3379 5.566 53.3633 4.958 53.4139 4.35C53.4139 3.97 53.4393 3.57733 53.4899 3.172C53.5659 2.76666 53.6673 2.38666 53.7939 2.032C53.8953 1.728 54.0726 1.43667 54.3259 1.158C54.6553 0.853999 55.0353 0.701999 55.4659 0.701999H55.5419C56.0739 0.701999 56.5046 0.803332 56.8339 1.006C57.1633 1.18333 57.4293 1.43667 57.6319 1.766C57.8599 2.07 58.0119 2.42467 58.0879 2.83C58.1893 3.23533 58.2526 3.64066 58.2779 4.046C58.3539 4.70467 58.3919 5.38867 58.3919 6.098C58.3919 6.80733 58.3919 7.504 58.3919 8.188V24.87C58.3919 25.7313 58.4046 26.618 58.4299 27.53C58.4553 28.4167 58.3286 29.2653 58.0499 30.076C57.9233 30.4053 57.7586 30.6713 57.5559 30.874C57.4799 30.9247 57.3659 30.988 57.2139 31.064C57.0619 31.14 56.9099 31.2033 56.7579 31.254C56.6059 31.3047 56.4539 31.3427 56.3019 31.368C56.1753 31.3933 56.0486 31.406 55.9219 31.406C55.3393 31.406 54.8706 31.2287 54.5159 30.874C54.1866 30.5447 53.9333 30.1393 53.7559 29.658C53.5786 29.1513 53.4646 28.632 53.4139 28.1C53.3633 27.568 53.3379 27.0993 53.3379 26.694V25.326C53.3379 24.87 53.3379 24.3633 53.3379 23.806C53.3379 23.2233 53.3379 22.6407 53.3379 22.058C53.3633 21.45 53.3759 20.8673 53.3759 20.31C53.3759 19.7273 53.3633 19.1953 53.3379 18.714V17.536ZM40.2279 24.642C40.2026 24.338 40.1899 24.034 40.1899 23.73C40.1899 23.426 40.1899 23.122 40.1899 22.818V10.734C40.1899 10.3287 40.1899 9.92333 40.1899 9.518C40.1899 9.11267 40.1646 8.69467 40.1139 8.264C40.0886 8.13733 40.0506 7.96 39.9999 7.732C39.9746 7.504 39.8986 7.36467 39.7719 7.314C39.6453 7.238 39.4933 7.21267 39.3159 7.238C39.1639 7.238 39.0119 7.22533 38.8599 7.2C38.6826 7.17467 38.5053 7.17467 38.3279 7.2C38.1759 7.22533 38.0113 7.22533 37.8339 7.2H36.0479C35.6173 7.22533 35.1866 7.22533 34.7559 7.2C34.3253 7.17467 33.8946 7.17467 33.4639 7.2C33.2613 7.22533 33.0713 7.238 32.8939 7.238C32.7419 7.21267 32.5646 7.2 32.3619 7.2C32.0833 7.2 31.7919 7.18733 31.4879 7.162C31.1839 7.13667 30.9053 7.03533 30.6519 6.858C30.2973 6.60467 30.0566 6.288 29.9299 5.908C29.8033 5.528 29.7399 5.13533 29.7399 4.73C29.7146 4.24867 29.8159 3.76733 30.0439 3.286C30.1706 2.982 30.3353 2.76667 30.5379 2.64C30.6646 2.51333 30.8419 2.412 31.0699 2.336C31.3233 2.23466 31.5386 2.15866 31.7159 2.108C32.2479 1.98133 32.8053 1.918 33.3879 1.918C33.9706 1.89267 34.5406 1.88 35.0979 1.88H41.7099C42.0393 1.93067 42.3813 1.98133 42.7359 2.032C43.1159 2.05733 43.4579 2.13333 43.7619 2.26C43.9646 2.336 44.1546 2.43733 44.3319 2.564C44.5346 2.69067 44.6993 2.84267 44.8259 3.02C45.0539 3.37467 45.1806 3.72933 45.2059 4.084C45.2566 4.43867 45.3073 4.83133 45.3579 5.262C45.4086 5.97133 45.4339 6.68067 45.4339 7.39C45.4339 8.074 45.4339 8.77067 45.4339 9.48V21.944C45.4339 21.9693 45.4339 22.172 45.4339 22.552C45.4593 22.9067 45.4719 23.3373 45.4719 23.844C45.4719 24.3253 45.4719 24.8447 45.4719 25.402C45.4719 25.934 45.4593 26.4027 45.4339 26.808C45.4086 27.0613 45.3706 27.3273 45.3199 27.606C45.2693 27.8847 45.1806 28.1507 45.0539 28.404C44.9526 28.6573 44.8006 28.8853 44.5979 29.088C44.3953 29.2907 44.1293 29.4553 43.7999 29.582C43.3693 29.7593 42.9386 29.848 42.5079 29.848C42.1786 29.848 41.8493 29.7847 41.5199 29.658C41.1906 29.506 40.9626 29.2907 40.8359 29.012C40.4306 28.2013 40.2279 27.302 40.2279 26.314V24.642ZM83.2089 17.27C83.0316 17.2447 82.6516 17.232 82.0689 17.232C81.5116 17.2067 80.8909 17.194 80.2069 17.194C79.5482 17.1687 78.9276 17.156 78.3449 17.156C77.7876 17.156 77.4202 17.1433 77.2429 17.118C76.8122 17.0927 76.3942 17.0167 75.9889 16.89C75.6089 16.738 75.2796 16.5353 75.0009 16.282C74.7222 16.0033 74.5322 15.6867 74.4309 15.332C74.3296 14.952 74.3422 14.5213 74.4689 14.04C74.5196 13.8373 74.6209 13.622 74.7729 13.394C74.9502 13.166 75.1149 12.9887 75.2669 12.862C75.5709 12.634 75.9256 12.482 76.3309 12.406C76.5336 12.3807 76.9516 12.368 77.5849 12.368C78.2436 12.3427 78.9402 12.33 79.6749 12.33C80.4349 12.3047 81.1442 12.292 81.8029 12.292C82.4616 12.292 82.8922 12.2793 83.0949 12.254H83.2089C83.2596 11.114 83.2596 10.0247 83.2089 8.986C83.1582 7.94733 83.1582 6.858 83.2089 5.718V5.186C83.2089 4.85667 83.2089 4.502 83.2089 4.122C83.2342 3.71667 83.2722 3.324 83.3229 2.944C83.3736 2.53867 83.4622 2.17133 83.5889 1.842C83.7156 1.48733 83.8929 1.196 84.1209 0.967998C84.5009 0.638666 84.9696 0.474 85.5269 0.474H85.6029C86.2109 0.499333 86.6922 0.663999 87.0469 0.967998C87.4269 1.272 87.7056 1.63933 87.8829 2.07C88.0856 2.50067 88.2122 2.95666 88.2629 3.438C88.3136 3.91933 88.3389 4.36267 88.3389 4.768V27.72C88.3389 27.7453 88.3389 27.872 88.3389 28.1C88.3389 28.3027 88.3136 28.556 88.2629 28.86C88.2122 29.164 88.1362 29.468 88.0349 29.772C87.9336 30.076 87.7689 30.3293 87.5409 30.532C87.3636 30.7093 87.0722 30.8487 86.6669 30.95C86.2869 31.0513 85.9576 31.102 85.6789 31.102C85.0709 31.102 84.5896 30.8993 84.2349 30.494C83.9056 30.1393 83.7029 29.772 83.6269 29.392C83.5509 29.012 83.4876 28.6067 83.4369 28.176C83.4369 28.1 83.4242 28.024 83.3989 27.948C83.3989 27.872 83.3989 27.7833 83.3989 27.682C83.3482 27.2767 83.3229 26.846 83.3229 26.39C83.3229 25.934 83.3102 25.478 83.2849 25.022C83.2596 24.7433 83.2469 24.4773 83.2469 24.224C83.2469 23.9453 83.2469 23.6667 83.2469 23.388V22.514L83.2089 17.27ZM68.2369 20.5C68.2369 20.8547 68.2242 21.2093 68.1989 21.564C68.1736 21.8933 68.1736 22.2353 68.1989 22.59C68.1989 22.7673 68.2116 22.9447 68.2369 23.122C68.2622 23.2993 68.3382 23.4513 68.4649 23.578C68.6169 23.7047 68.7942 23.7807 68.9969 23.806C69.2249 23.806 69.4402 23.806 69.6429 23.806C69.9216 23.806 70.2129 23.8187 70.5169 23.844C70.8209 23.844 71.1122 23.844 71.3909 23.844C71.7202 23.844 72.1509 23.844 72.6829 23.844C73.2149 23.844 73.7596 23.844 74.3169 23.844C74.8996 23.844 75.4569 23.8567 75.9889 23.882C76.5209 23.9073 76.9389 23.9327 77.2429 23.958C77.6736 24.0087 78.1169 24.0847 78.5729 24.186C79.0542 24.262 79.4849 24.4267 79.8649 24.68C80.0676 24.8067 80.2069 24.984 80.2829 25.212C80.3842 25.4147 80.4476 25.63 80.4729 25.858C80.4982 25.9847 80.5109 26.1113 80.5109 26.238C80.5109 26.3393 80.5109 26.4533 80.5109 26.58C80.4602 27.188 80.2576 27.6947 79.9029 28.1C79.5482 28.48 79.0796 28.7333 78.4969 28.86C78.1422 28.9107 77.7876 28.9613 77.4329 29.012C77.1036 29.0627 76.7616 29.088 76.4069 29.088C76.2802 29.088 76.0776 29.088 75.7989 29.088C75.5202 29.088 75.2162 29.088 74.8869 29.088C74.5576 29.0627 74.2536 29.05 73.9749 29.05C73.6962 29.05 73.5062 29.05 73.4049 29.05H69.1489C68.6422 29.05 68.1482 29.0247 67.6669 28.974C67.2109 28.9233 66.7296 28.8853 66.2229 28.86C65.8429 28.8347 65.4502 28.7713 65.0449 28.67C64.6396 28.5433 64.2976 28.3407 64.0189 28.062C63.7402 27.7833 63.5249 27.4793 63.3729 27.15C63.2462 26.8207 63.1449 26.4787 63.0689 26.124C62.9169 25.3133 62.8536 24.4773 62.8789 23.616C62.9042 22.7547 62.9169 21.906 62.9169 21.07V12.14C62.9169 11.7093 62.9169 11.266 62.9169 10.81C62.9422 10.354 62.9422 9.898 62.9169 9.442C62.9169 9.41667 62.9042 9.22666 62.8789 8.872C62.8789 8.492 62.8789 8.04867 62.8789 7.542C62.8789 7.01 62.8789 6.478 62.8789 5.946C62.8789 5.38867 62.8916 4.89467 62.9169 4.464C62.9422 3.95733 63.0562 3.438 63.2589 2.906C63.4616 2.34867 63.8922 1.93067 64.5509 1.652C64.8296 1.55066 65.1209 1.47466 65.4249 1.424C65.7289 1.37333 66.0329 1.386 66.3369 1.462C66.6409 1.538 66.9196 1.67733 67.1729 1.88C67.4516 2.05733 67.6542 2.31067 67.7809 2.64C67.9329 2.99467 68.0342 3.37467 68.0849 3.78C68.1609 4.16 68.1989 4.56533 68.1989 4.996C68.1989 5.27467 68.1989 5.55333 68.1989 5.832C68.1989 6.11067 68.2116 6.38933 68.2369 6.668V20.5Z" fill="#4B8D5C"/>
</svg>
