<svg width="90" height="90" viewBox="0 0 90 90" fill="none" xmlns="http://www.w3.org/2000/svg">
<circle cx="45" cy="45" r="45" fill="#68BA7E"/>
<path fill-rule="evenodd" clip-rule="evenodd" d="M21.9668 65.3723C26.0606 65.3723 28.9066 61.8362 29.3793 57.9231C29.8521 54.0101 26.0606 50.9459 21.9668 50.474C17.8729 50.0021 15.0149 54.3263 14.5542 57.9231C14.0935 61.5199 17.8729 65.3723 21.9668 65.3723Z" fill="#4B8D5C"/>
<path fill-rule="evenodd" clip-rule="evenodd" d="M68.8061 64.3059C72.9 64.3059 75.746 60.7698 76.2187 56.8567C76.6914 52.9437 72.9 49.8795 68.8061 49.4076C64.7123 48.9357 61.8542 53.2599 61.3935 56.8567C60.9328 60.4535 64.7123 64.3059 68.8061 64.3059Z" fill="#4B8D5C"/>
<path fill-rule="evenodd" clip-rule="evenodd" d="M44.8551 56.8388C45.7324 56.8388 46.3423 56.081 46.4436 55.2425C46.5448 54.404 45.7324 53.7474 44.8551 53.6463C43.9779 53.5452 43.3655 54.4718 43.2667 55.2425C43.168 56.0133 43.9779 56.8388 44.8551 56.8388Z" fill="black"/>
<path d="M34.7424 58.9717C40.5424 64.6607 47.9941 64.6607 57.0975 58.9717" stroke="black" stroke-width="1.5" stroke-linecap="round"/>
<path d="M31.3156 38.0865C34.3096 34.4373 37.0464 34.4373 39.5261 38.0865" stroke="black" stroke-width="1.5" stroke-linecap="round"/>
<path d="M50.4741 38.0865C53.4681 34.4373 56.205 34.4373 58.6846 38.0865" stroke="black" stroke-width="1.5" stroke-linecap="round"/>
<path fill-rule="evenodd" clip-rule="evenodd" d="M35.1017 53.823C38.3098 53.823 40.54 51.0688 40.9105 48.021C41.2809 44.9732 38.3098 42.5866 35.1017 42.2191C31.8937 41.8515 29.654 45.2195 29.293 48.021C28.932 50.8225 31.8937 53.823 35.1017 53.823Z" fill="white"/>
<path fill-rule="evenodd" clip-rule="evenodd" d="M54.2129 53.823C57.421 53.823 59.6513 51.0688 60.0217 48.021C60.3921 44.9732 57.421 42.5866 54.2129 42.2191C51.0049 41.8515 48.7652 45.2195 48.4042 48.021C48.0432 50.8225 51.0049 53.823 54.2129 53.823Z" fill="white"/>
<path fill-rule="evenodd" clip-rule="evenodd" d="M37.0489 52.2954C39.1877 52.2954 40.6745 50.4593 40.9214 48.4274C41.1684 46.3956 39.1877 44.8045 37.0489 44.5595C34.9102 44.3144 33.4171 46.5598 33.1764 48.4274C32.9358 50.2951 34.9102 52.2954 37.0489 52.2954Z" fill="black"/>
<path fill-rule="evenodd" clip-rule="evenodd" d="M56.1595 52.2954C58.2983 52.2954 59.7851 50.4593 60.032 48.4274C60.279 46.3956 58.2983 44.8045 56.1595 44.5595C54.0208 44.3144 52.5277 46.5598 52.287 48.4274C52.0464 50.2951 54.0208 52.2954 56.1595 52.2954Z" fill="black"/>
</svg>
