<svg width="22" height="26" viewBox="0 0 22 26" fill="none" xmlns="http://www.w3.org/2000/svg">
<path d="M11 1V5.8C11 7.72018 11 8.68027 11.3633 9.41368C11.6829 10.0588 12.1928 10.5833 12.82 10.912C13.5331 11.2857 14.4665 11.2857 16.3333 11.2857H21M12.8235 1H6.33333C4.46649 1 3.53307 1 2.82003 1.37369C2.19282 1.7024 1.68289 2.22691 1.36331 2.87203C1 3.60544 1 4.56553 1 6.48571V19.5143C1 21.4345 1 22.3946 1.36331 23.128C1.68289 23.7731 2.19282 24.2976 2.82003 24.6263C3.53307 25 4.46649 25 6.33333 25H15.6667C17.5335 25 18.4669 25 19.18 24.6263C19.8072 24.2976 20.3171 23.7731 20.6367 23.128C21 22.3946 21 21.4345 21 19.5143V9.6701C21 8.88015 21 8.48518 20.9176 8.11103C20.8445 7.77922 20.7237 7.46045 20.5594 7.1652C20.3741 6.83227 20.1143 6.54136 19.5948 5.95954L16.7516 2.77515C16.1677 2.12121 15.8758 1.79424 15.5276 1.55985C15.2191 1.3521 14.8791 1.19847 14.5216 1.10521C14.1183 1 13.6867 1 12.8235 1Z" stroke="#E2E3DF" stroke-width="2"/>
</svg>
