<svg width="102" height="52" viewBox="0 0 102 52" fill="none" xmlns="http://www.w3.org/2000/svg">
<path d="M14.04 11.32C14.04 11.0533 14.0533 10.68 14.08 10.2C14.1067 9.72 14.2 9.24 14.36 8.76C14.52 8.28 14.76 7.86667 15.08 7.52C15.4267 7.17333 15.92 7 16.56 7C17.12 7 17.6133 7.14666 18.04 7.44C18.36 7.65333 18.6 8.04 18.76 8.6C18.9467 9.13333 19.0667 9.73333 19.12 10.4C19.2 11.0667 19.24 11.7333 19.24 12.4C19.24 13.0667 19.2267 13.6133 19.2 14.04V28.72C19.2 28.8 19.2 29.0933 19.2 29.6C19.2 30.08 19.1733 30.64 19.12 31.28C19.0667 31.8933 18.9733 32.5333 18.84 33.2C18.7333 33.84 18.5733 34.36 18.36 34.76C18.28 34.9467 18.1467 35.1467 17.96 35.36C17.8 35.5467 17.68 35.68 17.6 35.76C17.3867 35.9733 17.1467 36.1333 16.88 36.24C16.64 36.3467 16.3867 36.44 16.12 36.52C15.8533 36.5733 15.6133 36.6133 15.4 36.64C15.1867 36.6667 15.04 36.68 14.96 36.68H6.56C5.92 36.68 5.30667 36.6267 4.72 36.52C4.16 36.4133 3.64 36.1733 3.16 35.8C2.81333 35.5333 2.54667 35.2 2.36 34.8C2.2 34.3733 2.08 33.96 2 33.56C1.94667 33.16 1.92 32.8 1.92 32.48C1.92 32.1333 1.92 31.92 1.92 31.84V10.92C1.92 10.5467 1.96 10.1333 2.04 9.68C2.14667 9.22667 2.29333 8.81333 2.48 8.44C2.69333 8.04 2.96 7.72 3.28 7.48C3.6 7.21333 4 7.08 4.48 7.08C5.81333 7.08 6.68 7.65333 7.08 8.8C7.21333 9.17333 7.29333 9.54666 7.32 9.92C7.34667 10.2933 7.37333 10.6667 7.4 11.04V11.12C7.4 11.3067 7.4 11.7733 7.4 12.52C7.4 13.2667 7.4 14.08 7.4 14.96C7.4 15.84 7.4 16.68 7.4 17.48C7.42667 18.28 7.44 18.84 7.44 19.16C7.57333 19.16 7.92 19.16 8.48 19.16C9.04 19.16 9.66667 19.16 10.36 19.16C11.08 19.16 11.7733 19.1467 12.44 19.12C13.1067 19.0933 13.6133 19.04 13.96 18.96L14.04 16.64V11.32ZM29.52 34.8C29.4667 35.12 29.4267 35.44 29.4 35.76C29.3733 36.0533 29.3067 36.36 29.2 36.68C29.1467 36.7867 29.1067 36.88 29.08 36.96C29.0533 37.04 29.0133 37.1333 28.96 37.24C28.7733 37.6133 28.5333 37.9067 28.24 38.12C27.6267 38.4933 26.9467 38.5867 26.2 38.4C25.7733 38.32 25.4267 38.16 25.16 37.92C24.92 37.7067 24.7333 37.4267 24.6 37.08C24.4933 36.76 24.4 36.44 24.32 36.12C24.2667 35.8 24.24 35.52 24.24 35.28C24.24 35.04 24.24 34.9067 24.24 34.88V10.64C24.24 10.32 24.24 9.97333 24.24 9.6C24.24 9.22666 24.2667 8.85333 24.32 8.48C24.3733 8.10666 24.4533 7.76 24.56 7.44C24.6667 7.12 24.8133 6.86667 25 6.68C25.2933 6.38667 25.6 6.21333 25.92 6.16C26.24 6.08 26.5867 6.04 26.96 6.04C27.4133 6.04 27.8267 6.17333 28.2 6.44C28.6 6.68 28.88 7.02666 29.04 7.48C29.28 8.04 29.4133 8.62667 29.44 9.24C29.4667 9.85333 29.4933 10.4667 29.52 11.08V11.28C29.5733 13.3333 29.5867 15.44 29.56 17.6C29.5333 19.76 29.52 21.8 29.52 23.72V33.36C29.52 33.6 29.52 33.84 29.52 34.08C29.5467 34.32 29.5467 34.56 29.52 34.8ZM14.04 31.8L14 24L7.08 24.04C7.05333 24.6 7.04 25.2133 7.04 25.88C7.06667 26.5467 7.08 27.16 7.08 27.72C7.08 27.9333 7.08 28.2267 7.08 28.6C7.08 28.9733 7.08 29.3733 7.08 29.8C7.08 30.2267 7.08 30.6267 7.08 31C7.08 31.3733 7.08 31.6533 7.08 31.84L14.04 31.8ZM57.1978 23.88C57.0645 23.88 56.7711 23.8667 56.3178 23.84C55.8645 23.8133 55.5311 23.8 55.3178 23.8C55.0511 23.8 54.7978 23.8 54.5578 23.8C54.3445 23.7733 54.1311 23.7333 53.9178 23.68C53.7045 23.68 53.4911 23.6533 53.2778 23.6C53.0911 23.5467 52.8911 23.48 52.6778 23.4C52.3311 23.2133 52.0511 22.9867 51.8378 22.72C51.7045 22.5333 51.5845 22.36 51.4778 22.2C51.3978 22.04 51.3578 21.8533 51.3578 21.64C51.3045 21.32 51.3178 20.9467 51.3978 20.52C51.5045 20.0933 51.6511 19.7733 51.8378 19.56C51.9178 19.4267 51.9845 19.32 52.0378 19.24C52.1178 19.16 52.2111 19.0667 52.3178 18.96C52.4778 18.8267 52.6511 18.7333 52.8378 18.68C53.0245 18.6 53.1978 18.5333 53.3578 18.48C53.6511 18.4267 53.9178 18.4 54.1578 18.4C54.4245 18.4 54.6778 18.4 54.9178 18.4H57.2778V15.52C57.2778 15.2 57.2645 14.9067 57.2378 14.64C57.2111 14.3733 57.1978 14.0933 57.1978 13.8C57.1978 13.16 57.1978 12.5333 57.1978 11.92C57.1978 11.28 57.2245 10.64 57.2778 10C57.2778 9.6 57.3045 9.18666 57.3578 8.76C57.4378 8.33333 57.5445 7.93333 57.6778 7.56C57.7845 7.24 57.9711 6.93333 58.2378 6.64C58.5845 6.32 58.9845 6.16 59.4378 6.16H59.5178C60.0778 6.16 60.5311 6.26667 60.8778 6.48C61.2245 6.66667 61.5045 6.93333 61.7178 7.28C61.9578 7.6 62.1178 7.97333 62.1978 8.4C62.3045 8.82666 62.3711 9.25333 62.3978 9.68C62.4778 10.3733 62.5178 11.0933 62.5178 11.84C62.5178 12.5867 62.5178 13.32 62.5178 14.04V31.6C62.5178 32.5067 62.5311 33.44 62.5578 34.4C62.5845 35.3333 62.4511 36.2267 62.1578 37.08C62.0245 37.4267 61.8511 37.7067 61.6378 37.92C61.5578 37.9733 61.4378 38.04 61.2778 38.12C61.1178 38.2 60.9578 38.2667 60.7978 38.32C60.6378 38.3733 60.4778 38.4133 60.3178 38.44C60.1845 38.4667 60.0511 38.48 59.9178 38.48C59.3045 38.48 58.8111 38.2933 58.4378 37.92C58.0911 37.5733 57.8245 37.1467 57.6378 36.64C57.4511 36.1067 57.3311 35.56 57.2778 35C57.2245 34.44 57.1978 33.9467 57.1978 33.52V32.08C57.1978 31.6 57.1978 31.0667 57.1978 30.48C57.1978 29.8667 57.1978 29.2533 57.1978 28.64C57.2245 28 57.2378 27.3867 57.2378 26.8C57.2378 26.1867 57.2245 25.6267 57.1978 25.12V23.88ZM43.3978 31.36C43.3711 31.04 43.3578 30.72 43.3578 30.4C43.3578 30.08 43.3578 29.76 43.3578 29.44V16.72C43.3578 16.2933 43.3578 15.8667 43.3578 15.44C43.3578 15.0133 43.3311 14.5733 43.2778 14.12C43.2511 13.9867 43.2111 13.8 43.1578 13.56C43.1311 13.32 43.0511 13.1733 42.9178 13.12C42.7845 13.04 42.6245 13.0133 42.4378 13.04C42.2778 13.04 42.1178 13.0267 41.9578 13C41.7711 12.9733 41.5845 12.9733 41.3978 13C41.2378 13.0267 41.0645 13.0267 40.8778 13H38.9978C38.5445 13.0267 38.0911 13.0267 37.6378 13C37.1845 12.9733 36.7311 12.9733 36.2778 13C36.0645 13.0267 35.8645 13.04 35.6778 13.04C35.5178 13.0133 35.3311 13 35.1178 13C34.8245 13 34.5178 12.9867 34.1978 12.96C33.8778 12.9333 33.5845 12.8267 33.3178 12.64C32.9445 12.3733 32.6911 12.04 32.5578 11.64C32.4245 11.24 32.3578 10.8267 32.3578 10.4C32.3311 9.89333 32.4378 9.38667 32.6778 8.88C32.8111 8.56 32.9845 8.33333 33.1978 8.2C33.3311 8.06667 33.5178 7.96 33.7578 7.88C34.0245 7.77333 34.2511 7.69333 34.4378 7.64C34.9978 7.50667 35.5845 7.44 36.1978 7.44C36.8111 7.41333 37.4111 7.4 37.9978 7.4H44.9578C45.3045 7.45333 45.6645 7.50666 46.0378 7.56C46.4378 7.58667 46.7978 7.66667 47.1178 7.8C47.3311 7.88 47.5311 7.98666 47.7178 8.12C47.9311 8.25333 48.1045 8.41333 48.2378 8.6C48.4778 8.97333 48.6111 9.34667 48.6378 9.72C48.6911 10.0933 48.7445 10.5067 48.7978 10.96C48.8511 11.7067 48.8778 12.4533 48.8778 13.2C48.8778 13.92 48.8778 14.6533 48.8778 15.4V28.52C48.8778 28.5467 48.8778 28.76 48.8778 29.16C48.9045 29.5333 48.9178 29.9867 48.9178 30.52C48.9178 31.0267 48.9178 31.5733 48.9178 32.16C48.9178 32.72 48.9045 33.2133 48.8778 33.64C48.8511 33.9067 48.8111 34.1867 48.7578 34.48C48.7045 34.7733 48.6111 35.0533 48.4778 35.32C48.3711 35.5867 48.2111 35.8267 47.9978 36.04C47.7845 36.2533 47.5045 36.4267 47.1578 36.56C46.7045 36.7467 46.2511 36.84 45.7978 36.84C45.4511 36.84 45.1045 36.7733 44.7578 36.64C44.4111 36.48 44.1711 36.2533 44.0378 35.96C43.6111 35.1067 43.3978 34.16 43.3978 33.12V31.36ZM88.6409 23.6C88.4543 23.5733 88.0543 23.56 87.4409 23.56C86.8543 23.5333 86.2009 23.52 85.4809 23.52C84.7876 23.4933 84.1343 23.48 83.5209 23.48C82.9343 23.48 82.5476 23.4667 82.3609 23.44C81.9076 23.4133 81.4676 23.3333 81.0409 23.2C80.6409 23.04 80.2943 22.8267 80.0009 22.56C79.7076 22.2667 79.5076 21.9333 79.4009 21.56C79.2943 21.16 79.3076 20.7067 79.4409 20.2C79.4943 19.9867 79.6009 19.76 79.7609 19.52C79.9476 19.28 80.1209 19.0933 80.2809 18.96C80.6009 18.72 80.9743 18.56 81.4009 18.48C81.6143 18.4533 82.0543 18.44 82.7209 18.44C83.4143 18.4133 84.1476 18.4 84.9209 18.4C85.7209 18.3733 86.4676 18.36 87.1609 18.36C87.8543 18.36 88.3076 18.3467 88.5209 18.32H88.6409C88.6943 17.12 88.6943 15.9733 88.6409 14.88C88.5876 13.7867 88.5876 12.64 88.6409 11.44V10.88C88.6409 10.5333 88.6409 10.16 88.6409 9.76C88.6676 9.33333 88.7076 8.92 88.7609 8.52C88.8143 8.09333 88.9076 7.70666 89.0409 7.36C89.1743 6.98666 89.3609 6.68 89.6009 6.44C90.0009 6.09333 90.4943 5.92 91.0809 5.92H91.1609C91.8009 5.94667 92.3076 6.12 92.6809 6.44C93.0809 6.76 93.3743 7.14667 93.5609 7.6C93.7743 8.05333 93.9076 8.53333 93.9609 9.04C94.0143 9.54667 94.0409 10.0133 94.0409 10.44V34.6C94.0409 34.6267 94.0409 34.76 94.0409 35C94.0409 35.2133 94.0143 35.48 93.9609 35.8C93.9076 36.12 93.8276 36.44 93.7209 36.76C93.6143 37.08 93.4409 37.3467 93.2009 37.56C93.0143 37.7467 92.7076 37.8933 92.2809 38C91.8809 38.1067 91.5343 38.16 91.2409 38.16C90.6009 38.16 90.0943 37.9467 89.7209 37.52C89.3743 37.1467 89.1609 36.76 89.0809 36.36C89.0009 35.96 88.9343 35.5333 88.8809 35.08C88.8809 35 88.8676 34.92 88.8409 34.84C88.8409 34.76 88.8409 34.6667 88.8409 34.56C88.7876 34.1333 88.7609 33.68 88.7609 33.2C88.7609 32.72 88.7476 32.24 88.7209 31.76C88.6943 31.4667 88.6809 31.1867 88.6809 30.92C88.6809 30.6267 88.6809 30.3333 88.6809 30.04V29.12L88.6409 23.6ZM72.8809 27C72.8809 27.3733 72.8676 27.7467 72.8409 28.12C72.8143 28.4667 72.8143 28.8267 72.8409 29.2C72.8409 29.3867 72.8543 29.5733 72.8809 29.76C72.9076 29.9467 72.9876 30.1067 73.1209 30.24C73.2809 30.3733 73.4676 30.4533 73.6809 30.48C73.9209 30.48 74.1476 30.48 74.3609 30.48C74.6543 30.48 74.9609 30.4933 75.2809 30.52C75.6009 30.52 75.9076 30.52 76.2009 30.52C76.5476 30.52 77.0009 30.52 77.5609 30.52C78.1209 30.52 78.6943 30.52 79.2809 30.52C79.8943 30.52 80.4809 30.5333 81.0409 30.56C81.6009 30.5867 82.0409 30.6133 82.3609 30.64C82.8143 30.6933 83.2809 30.7733 83.7609 30.88C84.2676 30.96 84.7209 31.1333 85.1209 31.4C85.3343 31.5333 85.4809 31.72 85.5609 31.96C85.6676 32.1733 85.7343 32.4 85.7609 32.64C85.7876 32.7733 85.8009 32.9067 85.8009 33.04C85.8009 33.1467 85.8009 33.2667 85.8009 33.4C85.7476 34.04 85.5343 34.5733 85.1609 35C84.7876 35.4 84.2943 35.6667 83.6809 35.8C83.3076 35.8533 82.9343 35.9067 82.5609 35.96C82.2143 36.0133 81.8543 36.04 81.4809 36.04C81.3476 36.04 81.1343 36.04 80.8409 36.04C80.5476 36.04 80.2276 36.04 79.8809 36.04C79.5343 36.0133 79.2143 36 78.9209 36C78.6276 36 78.4276 36 78.3209 36H73.8409C73.3076 36 72.7876 35.9733 72.2809 35.92C71.8009 35.8667 71.2943 35.8267 70.7609 35.8C70.3609 35.7733 69.9476 35.7067 69.5209 35.6C69.0943 35.4667 68.7343 35.2533 68.4409 34.96C68.1476 34.6667 67.9209 34.3467 67.7609 34C67.6276 33.6533 67.5209 33.2933 67.4409 32.92C67.2809 32.0667 67.2143 31.1867 67.2409 30.28C67.2676 29.3733 67.2809 28.48 67.2809 27.6V18.2C67.2809 17.7467 67.2809 17.28 67.2809 16.8C67.3076 16.32 67.3076 15.84 67.2809 15.36C67.2809 15.3333 67.2676 15.1333 67.2409 14.76C67.2409 14.36 67.2409 13.8933 67.2409 13.36C67.2409 12.8 67.2409 12.24 67.2409 11.68C67.2409 11.0933 67.2543 10.5733 67.2809 10.12C67.3076 9.58667 67.4276 9.04 67.6409 8.48C67.8543 7.89333 68.3076 7.45333 69.0009 7.16C69.2943 7.05333 69.6009 6.97333 69.9209 6.92C70.2409 6.86667 70.5609 6.88 70.8809 6.96C71.2009 7.04 71.4943 7.18667 71.7609 7.4C72.0543 7.58667 72.2676 7.85333 72.4009 8.2C72.5609 8.57333 72.6676 8.97333 72.7209 9.4C72.8009 9.8 72.8409 10.2267 72.8409 10.68C72.8409 10.9733 72.8409 11.2667 72.8409 11.56C72.8409 11.8533 72.8543 12.1467 72.8809 12.44V27Z" fill="#767462"/>
</svg>
