<?xml version="1.0" encoding="UTF-8"?>
<svg width="125px" height="156px" viewBox="0 0 125 156" version="1.1" xmlns="http://www.w3.org/2000/svg" xmlns:xlink="http://www.w3.org/1999/xlink">
    <title>Group 14</title>
    <g id="Page-1" stroke="none" stroke-width="1" fill="none" fill-rule="evenodd">
        <g id="Artboard-Copy" transform="translate(-455.000000, -928.000000)">
            <g id="Group-14" transform="translate(455.715190, 928.768927)">
                <g id="Group-12-Copy" transform="translate(10.284810, 0.000000)">
                    <g id="Group-5-Copy-3">
                        <g id="Group-Copy-4" fill="#68BA7E">
                            <path d="M67.853251,14.1292244 C73.32763,16.4889923 77.9228659,20.5081226 80.9905692,25.6195341 L89.2982323,39.4616934 L105.198727,66.2283549 C111.442528,75.4283819 114.777022,86.4987865 113.845688,98.2549749 C111.401767,129.104487 89.3592755,157.506587 57.5662909,155.086831 C25.7733063,152.667076 0,129.609906 0,98.1825261 C0,85.5829224 4.14254806,73.9397363 11.1547479,64.5112263 C19.598442,50.9603961 25.9396098,39.331824 30.1787964,29.6248583 L30.450123,28.9995356 L30.450123,28.9995356 C36.6723885,14.564624 53.4183394,7.90695889 67.853251,14.1292244 Z" id="Combined-Shape"></path>
                        </g>
                        <g id="Group-4-Copy-2" transform="translate(12.446766, 92.725949)">
                            <path d="M10.8895992,23.3853309 C16.8729268,23.3853309 21.0324916,18.2172184 21.7233722,12.4981279 C22.4142527,6.77903733 16.8729268,2.30064326 10.8895992,1.61092483 C4.90627167,0.921206399 0.72916082,7.24124196 0.0558263177,12.4981279 C-0.617508184,17.7550138 4.90627167,23.3853309 10.8895992,23.3853309 Z" id="Oval-Copy-9" fill="#4B8D5C"></path>
                            <path d="M79.3468101,21.8263089 C85.3301376,21.8263089 89.4897025,16.6581964 90.180583,10.9391058 C90.8714635,5.22001527 85.3301376,0.741621201 79.3468101,0.0519027692 C73.3634825,-0.637815662 69.1863716,5.6822199 68.5130371,10.9391058 C67.8397026,16.1959917 73.3634825,21.8263089 79.3468101,21.8263089 Z" id="Oval-Copy-10" fill="#4B8D5C"></path>
                            <g id="Group-9" transform="translate(29.561068, 6.236088)">
                                <path d="M14.7802512,4.67706618 C16.0623928,4.67706618 16.9537281,3.5696135 17.1017739,2.3440941 C17.2498198,1.1185747 16.0623928,0.158918829 14.7802512,0.011122022 C13.4981095,-0.136674785 12.6030144,1.21761855 12.4587284,2.3440941 C12.3144424,3.47056965 13.4981095,4.67706618 14.7802512,4.67706618 Z" id="Oval-Copy-6" fill="#000000"></path>
                                <path d="M0,7.7951103 C8.47691607,16.1098946 19.367836,16.1098946 32.6727597,7.7951103" id="Path-3" stroke="#000000" stroke-width="3" stroke-linecap="round"></path>
                            </g>
                        </g>
                    </g>
                    <path d="M37,76.2310731 C41.3758803,70.8977397 45.3758803,70.8977397 49,76.2310731" id="Path-7" stroke="#000000" stroke-width="3" stroke-linecap="round"></path>
                    <path d="M65,76.2310731 C69.3758803,70.8977397 73.3758803,70.8977397 77,76.2310731" id="Path-7-Copy" stroke="#000000" stroke-width="3" stroke-linecap="round"></path>
                    <g id="Group-11" transform="translate(26.689655, 39.665416)">
                        <path d="M15.8437927,59.5656566 C20.5325248,59.5656566 23.7920965,55.540335 24.3334932,51.0858695 C24.8748899,46.631404 20.5325248,43.1432879 15.8437927,42.6060824 C11.1550606,42.0688769 7.88173921,46.9914044 7.35409216,51.0858695 C6.82644512,55.1803346 11.1550606,59.5656566 15.8437927,59.5656566 Z" id="Oval" fill="#FFFFFF"></path>
                        <path d="M43.7748272,59.5656566 C48.4635593,59.5656566 51.723131,55.540335 52.2645277,51.0858695 C52.8059244,46.631404 48.4635593,43.1432879 43.7748272,42.6060824 C39.086095,42.0688769 35.8127737,46.9914044 35.2851266,51.0858695 C34.7574796,55.1803346 39.086095,59.5656566 43.7748272,59.5656566 Z" id="Oval-Copy-8" fill="#FFFFFF"></path>
                        <path d="M46.6199997,57.3333333 C49.7458211,57.3333333 51.9188689,54.6497856 52.2798001,51.6801419 C52.6407312,48.7104983 49.7458211,46.3850876 46.6199997,46.0269506 C43.4941783,45.6688136 41.3119641,48.9504985 40.9601994,51.6801419 C40.6084347,54.4097854 43.4941783,57.3333333 46.6199997,57.3333333 Z" id="Oval-Copy-7" fill="#000000"></path>
                        <path d="M18.6199997,57.3333333 C21.7458211,57.3333333 23.9188689,54.6497856 24.2798001,51.6801419 C24.6407312,48.7104983 21.7458211,46.3850876 18.6199997,46.0269506 C15.4941783,45.6688136 13.3119641,48.9504985 12.9601994,51.6801419 C12.6084347,54.4097854 15.4941783,57.3333333 18.6199997,57.3333333 Z" id="Oval-Copy-11" fill="#000000"></path>
                    </g>
                </g>
                <path d="M39.9278264,42.6142747 C34.4074979,40.7887814 30.7417562,38.0950456 28.9306014,34.5330676" id="Path-8" stroke="#4B8D5C" stroke-width="4" stroke-linecap="round"></path>
                <path d="M39.141381,25.7308737 C38.3404547,23.5489666 35.1694162,22.7237655 29.6282657,23.2552705 C25.9614478,23.7773055 22.0280489,28.4360279 22.0280489,31.4561489 C23.9861448,34.415502 34.2465212,25.2648027 38.7066863,29.9319775 C41.6801297,33.0434274 41.8250279,31.6430595 39.141381,25.7308737 Z" id="Path-9-Copy" fill="#4B8D5C" transform="translate(31.539529, 27.578889) scale(-1, 1) rotate(72.000000) translate(-31.539529, -27.578889) "></path>
                <path d="M28.4718025,37.4618775 C28.2107416,31.8120928 24.601232,27.524087 17.6432735,24.5978603 C7.20633574,20.2085201 3.20711695,27.6704071 1.7295888,29.6138204 C0.25206065,31.5572337 0.983114428,35.904984 8.83996341,35.904984 C16.6968124,35.904984 28.0327762,35.9939209 28.9427226,39.7429341 C29.5493536,42.2422762 29.3923802,41.481924 28.4718025,37.4618775 Z" id="Path-10" fill="#4B8D5C" transform="translate(15.207804, 32.208457) rotate(-8.000000) translate(-15.207804, -32.208457) "></path>
            </g>
        </g>
    </g>
</svg>