<svg width="11" height="6" viewBox="0 0 11 6" fill="none" xmlns="http://www.w3.org/2000/svg">
<path d="M5.5 6C5.35409 6 5.22983 5.94297 5.12011 5.83992L0.152189 0.858854C0.0507307 0.766278 0 0.640624 0 0.499002C0 0.217675 0.220021 0 0.516135 0C0.660062 0 0.784324 0.0545578 0.883221 0.144664L5.5 4.77027L10.1168 0.144664C10.2157 0.0545578 10.3456 0 10.4839 0C10.78 0 11 0.217675 11 0.499002C11 0.640624 10.9493 0.766278 10.8478 0.858854L5.87989 5.83992C5.77017 5.94297 5.64591 6 5.5 6Z" fill="#E2E3DF"/>
</svg>
