<svg width="11" height="7" viewBox="0 0 11 7" fill="none" xmlns="http://www.w3.org/2000/svg">
<path d="M5.5 7C5.35409 7 5.22983 6.93346 5.12011 6.81324L0.152189 1.002C0.0507298 0.893991 0 0.747394 0 0.58217C0 0.253954 0.220021 0 0.516135 0C0.660062 0 0.784324 0.0636506 0.883221 0.168775L5.5 5.56532L10.1168 0.168775C10.2157 0.0636506 10.3456 0 10.4839 0C10.78 0 11 0.253954 11 0.58217C11 0.747394 10.9493 0.893991 10.8478 1.002L5.87989 6.81324C5.77017 6.93346 5.64591 7 5.5 7Z" fill="#222222"/>
</svg>
