<svg width="24" height="24" viewBox="0 0 24 24" fill="none" xmlns="http://www.w3.org/2000/svg">
<circle cx="12" cy="12" r="12" fill="#68BB7E"/>
<path d="M10.7247 18C11.1955 18 11.564 17.8279 11.8178 17.4641L17.7421 8.80725C17.9263 8.54517 18 8.29481 18 8.06402C18 7.44987 17.5169 7 16.8536 7C16.3992 7 16.1167 7.15257 15.8383 7.57113L10.696 15.3439L8.07164 12.2066C7.81782 11.9132 7.53941 11.7802 7.15047 11.7802C6.48721 11.7802 6 12.2379 6 12.8599C6 13.1376 6.09007 13.3802 6.33573 13.654L9.6561 17.511C9.95087 17.8474 10.2866 18 10.7247 18Z" fill="white"/>
</svg>
