<svg width="24" height="24" viewBox="0 0 24 24" fill="none" xmlns="http://www.w3.org/2000/svg">
<path d="M21 12V9.08572C21 7.40556 21 6.56548 20.673 5.92374C20.3854 5.35926 19.9265 4.90031 19.362 4.61269C18.7202 4.28571 17.8802 4.28571 16.2 4.28571H7.8C6.11984 4.28571 5.27976 4.28571 4.63803 4.61269C4.07354 4.90031 3.6146 5.35926 3.32698 5.92374C3 6.56548 3 7.40556 3 9.08571V16.2C3 17.8802 3 18.7202 3.32698 19.362C3.6146 19.9265 4.07354 20.3854 4.63803 20.673C5.27976 21 6.11984 21 7.8 21H12M18.4286 15.8571V18.4286M18.4286 18.4286V21M18.4286 18.4286H15.8571M18.4286 18.4286H21M3 9.42857H21M8.14286 3V5.57143M15.8571 3V5.57143" stroke="#E2E3DF" stroke-width="2" stroke-linecap="round" stroke-linejoin="round"/>
</svg>
