<svg width="80" height="80" viewBox="0 0 80 80" fill="none" xmlns="http://www.w3.org/2000/svg">
<rect width="80" height="80" fill="white"/>
<path fill-rule="evenodd" clip-rule="evenodd" d="M45.7122 3.22742C48.5935 4.46941 51.012 6.58474 52.6266 9.27495L56.9991 16.5603L65.3678 30.648C68.654 35.4901 70.409 41.3167 69.9188 47.5041C68.6325 63.7407 57.0312 78.6892 40.298 77.4156C23.5649 76.1421 10 64.0067 10 47.466C10 40.8346 12.1803 34.7066 15.8709 29.7443C20.315 22.6122 23.6524 16.4919 25.8836 11.383L26.0264 11.0539C29.3013 3.45658 38.1149 -0.0474532 45.7122 3.22742Z" fill="#68BA7E"/>
<path fill-rule="evenodd" clip-rule="evenodd" d="M22.2817 56.9023C25.4308 56.9023 27.62 54.1823 27.9836 51.1722C28.3473 48.1622 25.4308 45.8051 22.2817 45.4421C19.1325 45.0791 16.9341 48.4054 16.5797 51.1722C16.2253 53.939 19.1325 56.9023 22.2817 56.9023Z" fill="#4B8D5C"/>
<path fill-rule="evenodd" clip-rule="evenodd" d="M58.3119 56.0818C61.4611 56.0818 63.6503 53.3617 64.0139 50.3517C64.3775 47.3416 61.4611 44.9846 58.3119 44.6216C55.1628 44.2585 52.9643 47.5849 52.6099 50.3517C52.2556 53.1184 55.1628 56.0818 58.3119 56.0818Z" fill="#4B8D5C"/>
<path fill-rule="evenodd" clip-rule="evenodd" d="M39.8883 50.338C40.5631 50.338 41.0322 49.7551 41.1102 49.1101C41.1881 48.4651 40.5631 47.96 39.8883 47.8822C39.2135 47.8044 38.7424 48.5172 38.6665 49.1101C38.5905 49.703 39.2135 50.338 39.8883 50.338Z" fill="black"/>
<path d="M32.1094 51.9791C36.5709 56.3553 42.303 56.3553 49.3056 51.9791" stroke="black" stroke-width="1.5" stroke-linecap="round"/>
<path d="M29.4736 35.9125C31.7767 33.1055 33.882 33.1055 35.7894 35.9125" stroke="black" stroke-width="1.5" stroke-linecap="round"/>
<path d="M44.2109 35.9125C46.514 33.1055 48.6193 33.1055 50.5267 35.9125" stroke="black" stroke-width="1.5" stroke-linecap="round"/>
<path fill-rule="evenodd" clip-rule="evenodd" d="M32.3858 48.0179C34.8536 48.0179 36.5691 45.8993 36.8541 43.5549C37.139 41.2104 34.8536 39.3746 32.3858 39.0918C29.9181 38.8091 28.1953 41.3999 27.9176 43.5549C27.6398 45.7099 29.9181 48.0179 32.3858 48.0179Z" fill="white"/>
<path fill-rule="evenodd" clip-rule="evenodd" d="M47.0865 48.018C49.5543 48.018 51.2698 45.8995 51.5548 43.555C51.8397 41.2105 49.5543 39.3747 47.0865 39.092C44.6187 38.8092 42.8959 41.4 42.6182 43.555C42.3405 45.71 44.6187 48.018 47.0865 48.018Z" fill="white"/>
<path fill-rule="evenodd" clip-rule="evenodd" d="M33.8838 46.8432C35.529 46.8432 36.6727 45.4308 36.8627 43.8678C37.0526 42.3049 35.529 41.081 33.8838 40.8925C32.2387 40.704 31.0901 42.4312 30.905 43.8678C30.7199 45.3045 32.2387 46.8432 33.8838 46.8432Z" fill="black"/>
<path fill-rule="evenodd" clip-rule="evenodd" d="M48.584 46.8432C50.2292 46.8432 51.3729 45.4308 51.5629 43.8678C51.7528 42.3049 50.2292 41.081 48.584 40.8925C46.9389 40.704 45.7903 42.4312 45.6052 43.8678C45.4201 45.3045 46.9389 46.8432 48.584 46.8432Z" fill="black"/>
<path d="M19.5 14C20.1667 15.3333 22.4 18.1 26 18.5" stroke="#4D8C5E" stroke-width="2" stroke-linecap="round"/>
</svg>
