<svg width="232" height="83" viewBox="0 0 232 83" fill="none" xmlns="http://www.w3.org/2000/svg">
<path d="M31.0434 13.8C31.0434 13.1333 31.0767 12.2 31.1434 11C31.21 9.8 31.4434 8.6 31.8434 7.4C32.2434 6.2 32.8434 5.16666 33.6434 4.3C34.51 3.43333 35.7434 2.99999 37.3434 2.99999C38.7434 2.99999 39.9767 3.36666 41.0434 4.1C41.8434 4.63333 42.4434 5.6 42.8434 7C43.31 8.33333 43.61 9.83333 43.7434 11.5C43.9434 13.1667 44.0434 14.8333 44.0434 16.5C44.0434 18.1667 44.01 19.5333 43.9434 20.6V57.3C43.9434 57.5 43.9434 58.2333 43.9434 59.5C43.9434 60.7 43.8767 62.1 43.7434 63.7C43.61 65.2333 43.3767 66.8333 43.0434 68.5C42.7767 70.1 42.3767 71.4 41.8434 72.4C41.6434 72.8667 41.31 73.3667 40.8434 73.9C40.4434 74.3667 40.1434 74.7 39.9434 74.9C39.41 75.4333 38.81 75.8333 38.1434 76.1C37.5434 76.3667 36.91 76.6 36.2434 76.8C35.5767 76.9333 34.9767 77.0333 34.4434 77.1C33.91 77.1667 33.5434 77.2 33.3434 77.2H12.3434C10.7434 77.2 9.21003 77.0667 7.74336 76.8C6.34336 76.5333 5.04336 75.9333 3.84336 75C2.97669 74.3333 2.31003 73.5 1.84336 72.5C1.44336 71.4333 1.14336 70.4 0.943359 69.4C0.810026 68.4 0.743359 67.5 0.743359 66.7C0.743359 65.8333 0.743359 65.3 0.743359 65.1V12.8C0.743359 11.8667 0.843359 10.8333 1.04336 9.7C1.31003 8.56666 1.67669 7.53333 2.14336 6.6C2.67669 5.6 3.34336 4.8 4.14336 4.2C4.94336 3.53333 5.94336 3.2 7.14336 3.2C10.4767 3.2 12.6434 4.63333 13.6434 7.5C13.9767 8.43333 14.1767 9.36666 14.2434 10.3C14.31 11.2333 14.3767 12.1667 14.4434 13.1V13.3C14.4434 13.7667 14.4434 14.9333 14.4434 16.8C14.4434 18.6667 14.4434 20.7 14.4434 22.9C14.4434 25.1 14.4434 27.2 14.4434 29.2C14.51 31.2 14.5434 32.6 14.5434 33.4C14.8767 33.4 15.7434 33.4 17.1434 33.4C18.5434 33.4 20.11 33.4 21.8434 33.4C23.6434 33.4 25.3767 33.3667 27.0434 33.3C28.71 33.2333 29.9767 33.1 30.8434 32.9L31.0434 27.1V13.8ZM69.7434 72.5C69.61 73.3 69.51 74.1 69.4434 74.9C69.3767 75.6333 69.21 76.4 68.9434 77.2C68.81 77.4667 68.71 77.7 68.6434 77.9C68.5767 78.1 68.4767 78.3333 68.3434 78.6C67.8767 79.5333 67.2767 80.2667 66.5434 80.8C65.01 81.7333 63.31 81.9667 61.4434 81.5C60.3767 81.3 59.51 80.9 58.8434 80.3C58.2434 79.7667 57.7767 79.0667 57.4434 78.2C57.1767 77.4 56.9434 76.6 56.7434 75.8C56.61 75 56.5434 74.3 56.5434 73.7C56.5434 73.1 56.5434 72.7667 56.5434 72.7V12.1C56.5434 11.3 56.5434 10.4333 56.5434 9.49999C56.5434 8.56666 56.61 7.63333 56.7434 6.69999C56.8767 5.76666 57.0767 4.9 57.3434 4.1C57.61 3.3 57.9767 2.66666 58.4434 2.2C59.1767 1.46666 59.9434 1.03333 60.7434 0.899997C61.5434 0.699996 62.41 0.599995 63.3434 0.599995C64.4767 0.599995 65.51 0.933328 66.4434 1.59999C67.4434 2.19999 68.1434 3.06666 68.5434 4.2C69.1434 5.6 69.4767 7.06667 69.5434 8.6C69.61 10.1333 69.6767 11.6667 69.7434 13.2V13.7C69.8767 18.8333 69.91 24.1 69.8434 29.5C69.7767 34.9 69.7434 40 69.7434 44.8V68.9C69.7434 69.5 69.7434 70.1 69.7434 70.7C69.81 71.3 69.81 71.9 69.7434 72.5ZM31.0434 65L30.9434 45.5L13.6434 45.6C13.5767 47 13.5434 48.5333 13.5434 50.2C13.61 51.8667 13.6434 53.4 13.6434 54.8C13.6434 55.3333 13.6434 56.0667 13.6434 57C13.6434 57.9333 13.6434 58.9333 13.6434 60C13.6434 61.0667 13.6434 62.0667 13.6434 63C13.6434 63.9333 13.6434 64.6333 13.6434 65.1L31.0434 65ZM138.938 45.2C138.605 45.2 137.871 45.1667 136.738 45.1C135.605 45.0333 134.771 45 134.238 45C133.571 45 132.938 45 132.338 45C131.805 44.9333 131.271 44.8333 130.738 44.7C130.205 44.7 129.671 44.6333 129.138 44.5C128.671 44.3667 128.171 44.2 127.638 44C126.771 43.5333 126.071 42.9667 125.538 42.3C125.205 41.8333 124.905 41.4 124.638 41C124.438 40.6 124.338 40.1333 124.338 39.6C124.205 38.8 124.238 37.8667 124.438 36.8C124.705 35.7333 125.071 34.9333 125.538 34.4C125.738 34.0667 125.905 33.8 126.038 33.6C126.238 33.4 126.471 33.1667 126.738 32.9C127.138 32.5667 127.571 32.3333 128.038 32.2C128.505 32 128.938 31.8333 129.338 31.7C130.071 31.5667 130.738 31.5 131.338 31.5C132.005 31.5 132.638 31.5 133.238 31.5H139.138V24.3C139.138 23.5 139.105 22.7667 139.038 22.1C138.971 21.4333 138.938 20.7333 138.938 20C138.938 18.4 138.938 16.8333 138.938 15.3C138.938 13.7 139.005 12.1 139.138 10.5C139.138 9.5 139.205 8.46666 139.338 7.4C139.538 6.33333 139.805 5.33333 140.138 4.39999C140.405 3.6 140.871 2.83333 141.538 2.09999C142.405 1.3 143.405 0.899997 144.538 0.899997H144.738C146.138 0.899997 147.271 1.16666 148.138 1.7C149.005 2.16666 149.705 2.83333 150.238 3.7C150.838 4.5 151.238 5.43333 151.438 6.5C151.705 7.56666 151.871 8.63333 151.938 9.7C152.138 11.4333 152.238 13.2333 152.238 15.1C152.238 16.9667 152.238 18.8 152.238 20.6V64.5C152.238 66.7667 152.271 69.1 152.338 71.5C152.405 73.8333 152.071 76.0667 151.338 78.2C151.005 79.0667 150.571 79.7667 150.038 80.3C149.838 80.4333 149.538 80.6 149.138 80.8C148.738 81 148.338 81.1667 147.938 81.3C147.538 81.4333 147.138 81.5333 146.738 81.6C146.405 81.6667 146.071 81.7 145.738 81.7C144.205 81.7 142.971 81.2333 142.038 80.3C141.171 79.4333 140.505 78.3667 140.038 77.1C139.571 75.7667 139.271 74.4 139.138 73C139.005 71.6 138.938 70.3667 138.938 69.3V65.7C138.938 64.5 138.938 63.1667 138.938 61.7C138.938 60.1667 138.938 58.6333 138.938 57.1C139.005 55.5 139.038 53.9667 139.038 52.5C139.038 50.9667 139.005 49.5667 138.938 48.3V45.2ZM104.438 63.9C104.371 63.1 104.338 62.3 104.338 61.5C104.338 60.7 104.338 59.9 104.338 59.1V27.3C104.338 26.2333 104.338 25.1667 104.338 24.1C104.338 23.0333 104.271 21.9333 104.138 20.8C104.071 20.4667 103.971 20 103.838 19.4C103.771 18.8 103.571 18.4333 103.238 18.3C102.905 18.1 102.505 18.0333 102.038 18.1C101.638 18.1 101.238 18.0667 100.838 18C100.371 17.9333 99.9046 17.9333 99.4379 18C99.0379 18.0667 98.6046 18.0667 98.1379 18H93.4379C92.3046 18.0667 91.1712 18.0667 90.0379 18C88.9046 17.9333 87.7712 17.9333 86.6379 18C86.1046 18.0667 85.6046 18.1 85.1379 18.1C84.7379 18.0333 84.2712 18 83.7379 18C83.0046 18 82.2379 17.9667 81.4379 17.9C80.6379 17.8333 79.9046 17.5667 79.2379 17.1C78.3046 16.4333 77.6712 15.6 77.3379 14.6C77.0046 13.6 76.8379 12.5667 76.8379 11.5C76.7712 10.2333 77.0379 8.96667 77.6379 7.7C77.9712 6.9 78.4046 6.33333 78.9379 6C79.2712 5.66666 79.7379 5.4 80.3379 5.2C81.0046 4.93333 81.5712 4.73333 82.0379 4.6C83.4379 4.26666 84.9046 4.1 86.4379 4.1C87.9712 4.03333 89.4712 4 90.9379 4H108.338C109.205 4.13333 110.105 4.26666 111.038 4.39999C112.038 4.46666 112.938 4.66667 113.738 5C114.271 5.2 114.771 5.46666 115.238 5.79999C115.771 6.13333 116.205 6.53333 116.538 7C117.138 7.93333 117.471 8.86666 117.538 9.8C117.671 10.7333 117.805 11.7667 117.938 12.9C118.071 14.7667 118.138 16.6333 118.138 18.5C118.138 20.3 118.138 22.1333 118.138 24V56.8C118.138 56.8667 118.138 57.4 118.138 58.4C118.205 59.3333 118.238 60.4667 118.238 61.8C118.238 63.0667 118.238 64.4333 118.238 65.9C118.238 67.3 118.205 68.5333 118.138 69.6C118.071 70.2667 117.971 70.9667 117.838 71.7C117.705 72.4333 117.471 73.1333 117.138 73.8C116.871 74.4667 116.471 75.0667 115.938 75.6C115.405 76.1333 114.705 76.5667 113.838 76.9C112.705 77.3667 111.571 77.6 110.438 77.6C109.571 77.6 108.705 77.4333 107.838 77.1C106.971 76.7 106.371 76.1333 106.038 75.4C104.971 73.2667 104.438 70.9 104.438 68.3V63.9ZM217.546 44.5C217.079 44.4333 216.079 44.4 214.546 44.4C213.079 44.3333 211.446 44.3 209.646 44.3C207.912 44.2333 206.279 44.2 204.746 44.2C203.279 44.2 202.312 44.1667 201.846 44.1C200.712 44.0333 199.612 43.8333 198.546 43.5C197.546 43.1 196.679 42.5667 195.946 41.9C195.212 41.1667 194.712 40.3333 194.446 39.4C194.179 38.4 194.212 37.2667 194.546 36C194.679 35.4667 194.946 34.9 195.346 34.3C195.812 33.7 196.246 33.2333 196.646 32.9C197.446 32.3 198.379 31.9 199.446 31.7C199.979 31.6333 201.079 31.6 202.746 31.6C204.479 31.5333 206.312 31.5 208.246 31.5C210.246 31.4333 212.112 31.4 213.846 31.4C215.579 31.4 216.712 31.3667 217.246 31.3H217.546C217.679 28.3 217.679 25.4333 217.546 22.7C217.412 19.9667 217.412 17.1 217.546 14.1V12.7C217.546 11.8333 217.546 10.9 217.546 9.89999C217.612 8.83333 217.712 7.8 217.846 6.8C217.979 5.73333 218.212 4.76666 218.546 3.89999C218.879 2.96666 219.346 2.19999 219.946 1.59999C220.946 0.733331 222.179 0.299999 223.646 0.299999H223.846C225.446 0.366665 226.712 0.799997 227.646 1.59999C228.646 2.4 229.379 3.36666 229.846 4.5C230.379 5.63333 230.712 6.83333 230.846 8.09999C230.979 9.36666 231.046 10.5333 231.046 11.6V72C231.046 72.0667 231.046 72.4 231.046 73C231.046 73.5333 230.979 74.2 230.846 75C230.712 75.8 230.512 76.6 230.246 77.4C229.979 78.2 229.546 78.8667 228.946 79.4C228.479 79.8667 227.712 80.2333 226.646 80.5C225.646 80.7667 224.779 80.9 224.046 80.9C222.446 80.9 221.179 80.3667 220.246 79.3C219.379 78.3667 218.846 77.4 218.646 76.4C218.446 75.4 218.279 74.3333 218.146 73.2C218.146 73 218.112 72.8 218.046 72.6C218.046 72.4 218.046 72.1667 218.046 71.9C217.912 70.8333 217.846 69.7 217.846 68.5C217.846 67.3 217.812 66.1 217.746 64.9C217.679 64.1667 217.646 63.4667 217.646 62.8C217.646 62.0667 217.646 61.3333 217.646 60.6V58.3L217.546 44.5ZM178.146 53C178.146 53.9333 178.112 54.8667 178.046 55.8C177.979 56.6667 177.979 57.5667 178.046 58.5C178.046 58.9667 178.079 59.4333 178.146 59.9C178.212 60.3667 178.412 60.7667 178.746 61.1C179.146 61.4333 179.612 61.6333 180.146 61.7C180.746 61.7 181.312 61.7 181.846 61.7C182.579 61.7 183.346 61.7333 184.146 61.8C184.946 61.8 185.712 61.8 186.446 61.8C187.312 61.8 188.446 61.8 189.846 61.8C191.246 61.8 192.679 61.8 194.146 61.8C195.679 61.8 197.146 61.8333 198.546 61.9C199.946 61.9667 201.046 62.0333 201.846 62.1C202.979 62.2333 204.146 62.4333 205.346 62.7C206.612 62.9 207.746 63.3333 208.746 64C209.279 64.3333 209.646 64.8 209.846 65.4C210.112 65.9333 210.279 66.5 210.346 67.1C210.412 67.4333 210.446 67.7667 210.446 68.1C210.446 68.3667 210.446 68.6667 210.446 69C210.312 70.6 209.779 71.9333 208.846 73C207.912 74 206.679 74.6667 205.146 75C204.212 75.1333 203.279 75.2667 202.346 75.4C201.479 75.5333 200.579 75.6 199.646 75.6C199.312 75.6 198.779 75.6 198.046 75.6C197.312 75.6 196.512 75.6 195.646 75.6C194.779 75.5333 193.979 75.5 193.246 75.5C192.512 75.5 192.012 75.5 191.746 75.5H180.546C179.212 75.5 177.912 75.4333 176.646 75.3C175.446 75.1667 174.179 75.0667 172.846 75C171.846 74.9333 170.812 74.7667 169.746 74.5C168.679 74.1667 167.779 73.6333 167.046 72.9C166.312 72.1667 165.746 71.3667 165.346 70.5C165.012 69.6333 164.746 68.7333 164.546 67.8C164.146 65.6667 163.979 63.4667 164.046 61.2C164.112 58.9333 164.146 56.7 164.146 54.5V31C164.146 29.8667 164.146 28.7 164.146 27.5C164.212 26.3 164.212 25.1 164.146 23.9C164.146 23.8333 164.112 23.3333 164.046 22.4C164.046 21.4 164.046 20.2333 164.046 18.9C164.046 17.5 164.046 16.1 164.046 14.7C164.046 13.2333 164.079 11.9333 164.146 10.8C164.212 9.46666 164.512 8.1 165.046 6.69999C165.579 5.23333 166.712 4.13333 168.446 3.39999C169.179 3.13333 169.946 2.93333 170.746 2.8C171.546 2.66666 172.346 2.7 173.146 2.9C173.946 3.1 174.679 3.46666 175.346 4C176.079 4.46666 176.612 5.13333 176.946 6C177.346 6.93333 177.612 7.93333 177.746 8.99999C177.946 10 178.046 11.0667 178.046 12.2C178.046 12.9333 178.046 13.6667 178.046 14.4C178.046 15.1333 178.079 15.8667 178.146 16.6V53Z" fill="#767462"/>
</svg>
