<svg width="200" height="252" viewBox="0 0 200 252" fill="none" xmlns="http://www.w3.org/2000/svg">
<path fill-rule="evenodd" clip-rule="evenodd" d="M119.041 4.13706C128.645 8.27701 136.707 15.3281 142.089 24.2955L156.664 48.58L184.559 95.539C195.513 111.679 201.363 131.101 199.729 151.726C195.442 205.848 156.771 255.676 100.993 251.431C45.2163 247.186 0 206.735 0 151.599C0 129.494 7.26763 109.068 19.5697 92.5265C34.3832 68.7532 45.5081 48.3521 52.9453 31.3224L53.4213 30.2253C64.3375 4.90092 93.7164 -6.77919 119.041 4.13706Z" fill="#F8A854"/>
<path d="M64.3329 117.119L85.6149 124.005" stroke="black" stroke-width="3" stroke-linecap="round"/>
<path d="M139.207 117.68L117.371 124.006" stroke="black" stroke-width="3" stroke-linecap="round"/>
<path fill-rule="evenodd" clip-rule="evenodd" d="M46.3998 191.258C58.3964 191.258 66.7364 180.896 68.1216 169.429C69.5068 157.963 58.3964 148.983 46.3998 147.6C34.4031 146.218 26.028 158.889 24.6779 169.429C23.3279 179.97 34.4031 191.258 46.3998 191.258Z" fill="#DB8428"/>
<path fill-rule="evenodd" clip-rule="evenodd" d="M158.311 191.258C170.308 191.258 178.648 180.896 180.033 169.429C181.419 157.963 170.308 148.983 158.311 147.6C146.315 146.218 137.94 158.889 136.59 169.429C135.24 179.97 146.315 191.258 158.311 191.258Z" fill="#DB8428"/>
<path fill-rule="evenodd" clip-rule="evenodd" d="M126.923 152.967C133.671 152.967 138.362 147.138 139.141 140.688C139.92 134.238 133.671 129.187 126.923 128.409C120.175 127.631 115.464 134.759 114.704 140.688C113.945 146.617 120.175 152.967 126.923 152.967Z" fill="white"/>
<path fill-rule="evenodd" clip-rule="evenodd" d="M79.1581 147.496C74.6593 147.496 71.5318 143.611 71.0124 139.31C70.4929 135.01 74.6593 131.643 79.1581 131.125C83.6568 130.606 86.7975 135.358 87.3037 139.31C87.81 143.263 83.6568 147.496 79.1581 147.496Z" fill="black"/>
<path fill-rule="evenodd" clip-rule="evenodd" d="M128.29 147.496C123.791 147.496 120.664 143.611 120.144 139.31C119.625 135.01 123.791 131.643 128.29 131.125C132.789 130.606 135.929 135.358 136.436 139.31C136.942 143.263 132.789 147.496 128.29 147.496Z" fill="black"/>
<path fill-rule="evenodd" clip-rule="evenodd" d="M102.358 161.172C104.607 161.172 106.171 159.229 106.431 157.079C106.69 154.929 104.607 153.245 102.358 152.986C100.108 152.727 98.5381 155.103 98.2849 157.079C98.0318 159.055 100.108 161.172 102.358 161.172Z" fill="black"/>
<path fill-rule="evenodd" clip-rule="evenodd" d="M72.3314 155.702C80.5791 155.702 86.3128 148.578 87.2651 140.694C88.2175 132.811 80.5791 126.638 72.3314 125.687C64.0837 124.736 58.3257 133.448 57.3976 140.694C56.4694 147.941 64.0837 155.702 72.3314 155.702Z" fill="white"/>
<path fill-rule="evenodd" clip-rule="evenodd" d="M126.922 155.702C135.17 155.702 140.904 148.578 141.856 140.694C142.809 132.811 135.17 126.638 126.922 125.687C118.675 124.736 112.917 133.448 111.989 140.694C111.061 147.941 118.675 155.702 126.922 155.702Z" fill="white"/>
<path fill-rule="evenodd" clip-rule="evenodd" d="M77.3361 149.016C82.8346 149.016 86.6571 144.267 87.292 139.011C87.9269 133.755 82.8346 129.64 77.3361 129.006C71.8377 128.372 67.9991 134.18 67.3803 139.011C66.7615 143.842 71.8377 149.016 77.3361 149.016Z" fill="black"/>
<path fill-rule="evenodd" clip-rule="evenodd" d="M131.927 149.016C137.426 149.016 141.248 144.267 141.883 139.011C142.518 133.755 137.426 129.64 131.927 129.006C126.429 128.372 122.59 134.18 121.971 139.011C121.353 143.842 126.429 149.016 131.927 149.016Z" fill="black"/>
<path fill-rule="evenodd" clip-rule="evenodd" d="M91.3801 178.112L88.597 176.071C86.218 174.327 85.7037 170.984 87.4483 168.605C88.4545 167.233 90.0543 166.422 91.7558 166.422L111.754 166.422C114.704 166.422 117.096 168.814 117.096 171.764C117.096 173.465 116.285 175.065 114.913 176.071L112.13 178.112C105.954 182.641 97.5553 182.641 91.3801 178.112Z" fill="#060606"/>
</svg>
