<svg width="200" height="252" viewBox="0 0 200 252" fill="none" xmlns="http://www.w3.org/2000/svg">
<path d="M182.41 96.7702L182.448 96.835L182.491 96.8973C193.151 112.605 198.823 131.468 197.237 151.483C193.011 204.826 155.06 252.993 101.183 248.893C46.4353 244.726 2.5 205.124 2.5 151.553C2.5 130.007 9.58208 110.099 21.5758 93.9728L21.6371 93.8903L21.6915 93.803C36.5405 69.9727 47.7329 49.4588 55.2363 32.2773L55.2387 32.2718L55.7147 31.1748L55.7171 31.1693C66.0868 7.11282 93.9947 -3.9825 118.051 6.3872C127.174 10.3199 134.833 17.0179 139.945 25.5363L154.514 49.8111L154.52 49.8208L182.41 96.7702Z" fill="white" stroke="#68BB7E" stroke-width="5"/>
</svg>
