<svg width="21" height="28" viewBox="0 0 21 28" fill="none" xmlns="http://www.w3.org/2000/svg">
<path d="M5.49484 6.2238L5.5077 6.19808L5.51753 6.17106C7.05839 1.93368 9.60205 1.37018 10.4769 1.49516L10.5121 1.50019H10.5476C10.91 1.50019 11.3222 1.65285 11.7741 1.96041C12.2228 2.26576 12.6749 2.69984 13.106 3.20121C13.9686 4.20421 14.6971 5.41729 15.1004 6.22379L15.1143 6.25162L15.1315 6.27752C15.9157 7.45391 18.7179 11.9816 20.0736 14.1838C21.0176 19.2061 19.7919 22.5038 17.813 24.5526C15.8114 26.6248 12.9701 27.4919 10.5814 27.4999C5.25707 26.7648 2.59004 24.2413 1.37871 21.5451C0.162292 18.8376 0.384837 15.8924 0.991147 14.2414C2.23436 12.553 4.51303 8.18736 5.49484 6.2238Z" fill="white" stroke="#68BB7E"/>
</svg>
