<svg width="200" height="274" viewBox="0 0 200 274" fill="none" xmlns="http://www.w3.org/2000/svg">
<g clip-path="url(#clip0_668_87)">
<path fill-rule="evenodd" clip-rule="evenodd" d="M119.041 26.1371C128.645 30.277 136.707 37.3281 142.089 46.2955L156.664 70.58L184.559 117.539C195.513 133.679 201.363 153.101 199.729 173.726C195.442 227.848 156.771 277.676 100.993 273.431C45.2163 269.186 0 228.735 0 173.599C0 151.494 7.26763 131.068 19.5697 114.527C34.3832 90.7532 45.5081 70.3522 52.9453 53.3224L53.4213 52.2253C64.3375 26.9009 93.7164 15.2208 119.041 26.1371Z" fill="#DFDCC4"/>
<path fill-rule="evenodd" clip-rule="evenodd" d="M40.9407 210.523C52.9373 210.523 61.2773 200.161 62.6625 188.694C64.0477 177.227 52.9373 168.248 40.9407 166.865C28.944 165.482 20.5688 178.154 19.2188 188.694C17.8688 199.234 28.944 210.523 40.9407 210.523Z" fill="#9C9985"/>
<path fill-rule="evenodd" clip-rule="evenodd" d="M144.664 213.258C156.66 213.258 165 202.896 166.386 191.429C167.771 179.963 156.66 170.983 144.664 169.6C132.667 168.218 124.292 180.889 122.942 191.429C121.592 201.97 132.667 213.258 144.664 213.258Z" fill="#9C9985"/>
<path d="M80.8359 200.702C86.8554 193.408 94.5891 193.408 104.037 200.702" stroke="black" stroke-width="3" stroke-linecap="round"/>
<path fill-rule="evenodd" clip-rule="evenodd" d="M90.3888 185.659C92.6382 185.659 94.2019 183.716 94.4617 181.566C94.7214 179.416 92.6382 177.732 90.3888 177.473C88.1394 177.213 86.5691 179.589 86.316 181.566C86.0628 183.542 88.1394 185.659 90.3888 185.659Z" fill="black"/>
<path d="M104.69 135.928C109.936 138.739 113.797 140.569 116.274 141.419C122.609 143.592 128.554 144.133 131.986 144.133" stroke="black" stroke-width="3" stroke-linecap="round"/>
<path d="M75.4302 138.106C70.453 140.632 66.8983 142.233 64.7661 142.91C59.313 144.64 62.6995 144.084 54.5911 145.192" stroke="black" stroke-width="3" stroke-linecap="round"/>
<path fill-rule="evenodd" clip-rule="evenodd" d="M69.2964 177.193C77.489 177.193 83.1845 170.131 84.1305 162.316C85.0764 154.501 77.489 148.382 69.2964 147.439C61.1038 146.497 55.3844 155.133 54.4624 162.316C53.5404 169.499 61.1038 177.193 69.2964 177.193Z" fill="white"/>
<path fill-rule="evenodd" clip-rule="evenodd" d="M114.91 177.193C123.103 177.193 128.799 170.131 129.745 162.316C130.69 154.501 123.103 148.382 114.91 147.439C106.718 146.497 100.998 155.133 100.076 162.316C99.1545 169.499 106.718 177.193 114.91 177.193Z" fill="white"/>
<path fill-rule="evenodd" clip-rule="evenodd" d="M65.7883 175.438C71.0894 175.438 74.7747 170.869 75.3868 165.812C75.9989 160.756 71.0894 156.796 65.7883 156.186C60.4872 155.576 56.7864 161.164 56.1898 165.812C55.5933 170.46 60.4872 175.438 65.7883 175.438Z" fill="black"/>
<path fill-rule="evenodd" clip-rule="evenodd" d="M111.402 175.438C116.703 175.438 120.389 170.869 121.001 165.812C121.613 160.756 116.703 156.796 111.402 156.186C106.101 155.576 102.4 161.164 101.804 165.812C101.207 170.46 106.101 175.438 111.402 175.438Z" fill="black"/>
</g>
<defs>
<clipPath id="clip0_668_87">
<rect width="200" height="273.684" fill="white"/>
</clipPath>
</defs>
</svg>
