<svg width="200" height="274" viewBox="0 0 200 274" fill="none" xmlns="http://www.w3.org/2000/svg">
<g clip-path="url(#clip0_668_147)">
<path fill-rule="evenodd" clip-rule="evenodd" d="M119.041 26.1371C128.645 30.277 136.707 37.3281 142.089 46.2955L156.664 70.58L184.559 117.539C195.513 133.679 201.363 153.101 199.729 173.726C195.442 227.848 156.771 277.676 100.993 273.431C45.2163 269.186 0 228.735 0 173.599C0 151.494 7.26763 131.068 19.5697 114.527C34.3832 90.7532 45.5081 70.3521 52.9453 53.3224L53.4213 52.2253C64.3375 26.9009 93.7164 15.2208 119.041 26.1371Z" fill="#68BA7E"/>
<path fill-rule="evenodd" clip-rule="evenodd" d="M40.941 205.053C51.4381 205.053 58.7355 195.986 59.9476 185.953C61.1597 175.919 51.4381 168.062 40.941 166.852C30.4439 165.642 23.1157 176.73 21.9344 185.953C20.7531 195.175 30.4439 205.053 40.941 205.053Z" fill="#4B8D5C"/>
<path fill-rule="evenodd" clip-rule="evenodd" d="M161.041 202.318C171.538 202.318 178.836 193.251 180.048 183.218C181.26 173.184 171.538 165.327 161.041 164.117C150.544 162.907 143.216 173.995 142.035 183.218C140.853 192.44 150.544 202.318 161.041 202.318Z" fill="#4B8D5C"/>
<path fill-rule="evenodd" clip-rule="evenodd" d="M99.6282 183.172C101.878 183.172 103.441 181.229 103.701 179.079C103.961 176.929 101.878 175.245 99.6282 174.986C97.3788 174.727 95.8085 177.103 95.5554 179.079C95.3022 181.055 97.3788 183.172 99.6282 183.172Z" fill="black"/>
<path d="M73.698 188.642C88.5697 203.23 107.677 203.23 131.019 188.642" stroke="black" stroke-width="3" stroke-linecap="round"/>
<path d="M64.9123 135.088C72.5893 125.731 79.6068 125.731 85.9649 135.088" stroke="black" stroke-width="3" stroke-linecap="round"/>
<path d="M114.035 135.088C121.712 125.731 128.73 125.731 135.088 135.088" stroke="black" stroke-width="3" stroke-linecap="round"/>
<path fill-rule="evenodd" clip-rule="evenodd" d="M74.6201 175.439C82.8459 175.439 88.5645 168.377 89.5143 160.562C90.4641 152.747 82.8459 146.627 74.6201 145.685C66.3942 144.742 60.6516 153.378 59.7259 160.562C58.8002 167.745 66.3942 175.439 74.6201 175.439Z" fill="white"/>
<path fill-rule="evenodd" clip-rule="evenodd" d="M123.622 175.439C131.848 175.439 137.566 168.377 138.516 160.562C139.466 152.747 131.848 146.627 123.622 145.685C115.396 144.742 109.653 153.378 108.728 160.562C107.802 167.745 115.396 175.439 123.622 175.439Z" fill="white"/>
<path fill-rule="evenodd" clip-rule="evenodd" d="M79.6116 171.522C85.0955 171.522 88.9079 166.814 89.5411 161.604C90.1743 156.394 85.0955 152.315 79.6116 151.686C74.1277 151.058 70.2993 156.815 69.6821 161.604C69.065 166.393 74.1277 171.522 79.6116 171.522Z" fill="black"/>
<path fill-rule="evenodd" clip-rule="evenodd" d="M128.613 171.522C134.097 171.522 137.91 166.814 138.543 161.604C139.176 156.394 134.097 152.315 128.613 151.686C123.13 151.058 119.301 156.815 118.684 161.604C118.067 166.393 123.13 171.522 128.613 171.522Z" fill="black"/>
</g>
<defs>
<clipPath id="clip0_668_147">
<rect width="200" height="273.684" fill="white"/>
</clipPath>
</defs>
</svg>
