<svg width="60" height="52" viewBox="0 0 60 52" fill="none" xmlns="http://www.w3.org/2000/svg">
<path d="M1.5 13.6099C1.5 10.6935 4.27199 8 8.12564 8H9.60435C13.3056 8 16.889 6.71527 19.5592 4.37886C21.6454 2.55339 24.5131 1.5 27.5385 1.5H31.8901C34.9154 1.5 37.7831 2.55339 39.8694 4.37886C42.5396 6.71527 46.123 8 49.8242 8H51.3029C55.1566 8 57.9286 10.6935 57.9286 13.6099V40.1143C57.9286 42.2227 57.9271 43.701 57.8194 44.8539C57.714 45.9824 57.5165 46.6576 57.207 47.1891C56.5644 48.2926 55.517 49.2252 54.1823 49.8203C53.5024 50.1234 52.6513 50.307 51.314 50.4026C49.9643 50.4991 48.2439 50.5 45.8449 50.5H13.5837C11.1846 50.5 9.46432 50.4991 8.11455 50.4026C6.77725 50.307 5.92621 50.1234 5.24631 49.8203C3.91153 49.2252 2.86414 48.2926 2.22158 47.1891C1.91209 46.6576 1.71454 45.9824 1.60917 44.8539C1.50152 43.701 1.5 42.2227 1.5 40.1143V13.6099Z" stroke="white" stroke-width="3"/>
<path d="M39.2849 28.037C39.2849 33.5436 34.8209 38.0076 29.3143 38.0076C23.8077 38.0076 19.3438 33.5436 19.3438 28.037C19.3438 22.5304 23.8077 18.0664 29.3143 18.0664C34.8209 18.0664 39.2849 22.5304 39.2849 28.037Z" stroke="white" stroke-width="3"/>
</svg>
