<?xml version="1.0" encoding="UTF-8"?>
<svg width="114px" height="156px" viewBox="0 0 114 156" version="1.1" xmlns="http://www.w3.org/2000/svg" xmlns:xlink="http://www.w3.org/1999/xlink">
    <title>Group 12</title>
    <g id="Page-1" stroke="none" stroke-width="1" fill="none" fill-rule="evenodd">
        <g id="Artboard-Copy" transform="translate(-81.000000, -743.000000)">
            <g id="Group-12" transform="translate(81.000000, 743.768927)">
                <g id="Group-5-Copy-3">
                    <g id="Group-Copy-4" fill="#68BA7E">
                        <path d="M67.853251,14.1292244 C73.32763,16.4889923 77.9228659,20.5081226 80.9905692,25.6195341 L89.2982323,39.4616934 L105.198727,66.2283549 C111.442528,75.4283819 114.777022,86.4987865 113.845688,98.2549749 C111.401767,129.104487 89.3592755,157.506587 57.5662909,155.086831 C25.7733063,152.667076 0,129.609906 0,98.1825261 C0,85.5829224 4.14254806,73.9397363 11.1547479,64.5112263 C19.598442,50.9603961 25.9396098,39.331824 30.1787964,29.6248583 L30.450123,28.9995356 L30.450123,28.9995356 C36.6723885,14.564624 53.4183394,7.90695889 67.853251,14.1292244 Z" id="Combined-Shape"></path>
                    </g>
                    <g id="Group-4-Copy-2" transform="translate(12.446766, 92.725949)">
                        <path d="M10.8895992,23.3853309 C16.8729268,23.3853309 21.0324916,18.2172184 21.7233722,12.4981279 C22.4142527,6.77903733 16.8729268,2.30064326 10.8895992,1.61092483 C4.90627167,0.921206399 0.72916082,7.24124196 0.0558263177,12.4981279 C-0.617508184,17.7550138 4.90627167,23.3853309 10.8895992,23.3853309 Z" id="Oval-Copy-9" fill="#4B8D5C"></path>
                        <path d="M79.3468101,21.8263089 C85.3301376,21.8263089 89.4897025,16.6581964 90.180583,10.9391058 C90.8714635,5.22001527 85.3301376,0.741621201 79.3468101,0.0519027692 C73.3634825,-0.637815662 69.1863716,5.6822199 68.5130371,10.9391058 C67.8397026,16.1959917 73.3634825,21.8263089 79.3468101,21.8263089 Z" id="Oval-Copy-10" fill="#4B8D5C"></path>
                        <g id="Group-9" transform="translate(29.561068, 6.236088)">
                            <path d="M14.7802512,4.67706618 C16.0623928,4.67706618 16.9537281,3.5696135 17.1017739,2.3440941 C17.2498198,1.1185747 16.0623928,0.158918829 14.7802512,0.011122022 C13.4981095,-0.136674785 12.6030144,1.21761855 12.4587284,2.3440941 C12.3144424,3.47056965 13.4981095,4.67706618 14.7802512,4.67706618 Z" id="Oval-Copy-6" fill="#000000"></path>
                            <path d="M0,7.7951103 C8.47691607,16.1098946 19.367836,16.1098946 32.6727597,7.7951103" id="Path-3" stroke="#000000" stroke-width="3" stroke-linecap="round"></path>
                        </g>
                    </g>
                </g>
                <path d="M37,76.2310731 C41.3758803,70.8977397 45.3758803,70.8977397 49,76.2310731" id="Path-7" stroke="#000000" stroke-width="3" stroke-linecap="round"></path>
                <path d="M65,76.2310731 C69.3758803,70.8977397 73.3758803,70.8977397 77,76.2310731" id="Path-7-Copy" stroke="#000000" stroke-width="3" stroke-linecap="round"></path>
                <g id="Group-11" transform="translate(34.000000, 82.231073)">
                    <path d="M8.53344785,17 C13.22218,17 16.4817517,12.9746784 17.0231484,8.52021292 C17.5645451,4.06574745 13.22218,0.577631358 8.53344785,0.0404258495 C3.84471572,-0.496779659 0.571394382,4.4257478 0.0437473372,8.52021292 C-0.483899707,12.6146781 3.84471572,17 8.53344785,17 Z" id="Oval" fill="#FFFFFF"></path>
                    <path d="M36.4644823,17 C41.1532144,17 44.4127861,12.9746784 44.9541828,8.52021292 C45.4955795,4.06574745 41.1532144,0.577631358 36.4644823,0.0404258495 C31.7757502,-0.496779659 28.5024289,4.4257478 27.9747818,8.52021292 C27.4471348,12.6146781 31.7757502,17 36.4644823,17 Z" id="Oval-Copy-8" fill="#FFFFFF"></path>
                    <path d="M11.3786204,14.7676768 C14.5044418,14.7676768 16.6774896,12.084129 17.0384207,9.11448538 C17.3993519,6.14484174 14.5044418,3.81943101 11.3786204,3.461294 C8.25279899,3.103157 6.07058476,6.38484196 5.71882006,9.11448538 C5.36705537,11.8441288 8.25279899,14.7676768 11.3786204,14.7676768 Z" id="Oval" fill="#000000"></path>
                    <path d="M39.3096549,14.7676768 C42.4354763,14.7676768 44.6085241,12.084129 44.9694552,9.11448538 C45.3303864,6.14484174 42.4354763,3.81943101 39.3096549,3.461294 C36.1838335,3.103157 34.0016192,6.38484196 33.6498545,9.11448538 C33.2980899,11.8441288 36.1838335,14.7676768 39.3096549,14.7676768 Z" id="Oval-Copy-7" fill="#000000"></path>
                </g>
            </g>
        </g>
    </g>
</svg>