<svg width="16" height="17" viewBox="0 0 16 17" fill="none" xmlns="http://www.w3.org/2000/svg">
<path d="M0 8.0043C0 8.42234 0.349948 8.77616 0.771852 8.77616H7.23244V15.2367C7.23244 15.65 7.58628 16.0086 8.0043 16.0086C8.42234 16.0086 8.76756 15.65 8.76756 15.2367V8.77616H15.2368C15.65 8.77616 16 8.42234 16 8.0043C16 7.58626 15.65 7.23244 15.2368 7.23244H8.76756V0.771857C8.76756 0.35855 8.42234 0 8.0043 0C7.58628 0 7.23244 0.35855 7.23244 0.771857V7.23244H0.771852C0.349948 7.23244 0 7.58626 0 8.0043Z" fill="#E2E3DF"/>
</svg>
