<svg width="26" height="26" viewBox="0 0 26 26" fill="none" xmlns="http://www.w3.org/2000/svg">
<path d="M25 13V10.7143C25 7.91402 25 6.51389 24.455 5.44433C23.9757 4.50352 23.2108 3.73862 22.27 3.25925C21.2004 2.71429 19.8003 2.71429 17 2.71429H9C6.19974 2.71429 4.79961 2.71429 3.73005 3.25925C2.78924 3.73862 2.02433 4.50352 1.54497 5.44433C1 6.51389 1 7.91402 1 10.7143V17C1 19.8003 1 21.2004 1.54497 22.27C2.02433 23.2108 2.78924 23.9757 3.73005 24.455C4.79961 25 6.19974 25 9 25H13M21.5714 18.1429V21.5714M21.5714 21.5714V25M21.5714 21.5714H18.1429M21.5714 21.5714H25M1 9.57143H25M7.85714 1V4.42857M18.1429 1V4.42857" stroke="#E2E3DF" stroke-width="2" stroke-linecap="round" stroke-linejoin="round"/>
</svg>
